<svg xmlns="http://www.w3.org/2000/svg" width="24" height="22" viewBox="0 0 24 22"><g transform="translate(-2 -3)"><path d="M22.8,3H8.4A2.423,2.423,0,0,0,6,5.444V17.667a2.423,2.423,0,0,0,2.4,2.444h2.4v2.444a1.226,1.226,0,0,0,.612,1.063,1.174,1.174,0,0,0,1.2-.012l5.724-3.5H22.8a2.423,2.423,0,0,0,2.4-2.444V5.444A2.423,2.423,0,0,0,22.8,3Z" transform="translate(0.8)" fill="#c7edd7"/><path d="M8,24.111H4.4A2.423,2.423,0,0,1,2,21.667V8.222a1.2,1.2,0,1,1,2.4,0V21.667H8a1.222,1.222,0,0,1,0,2.444ZM13.4,8.833a1.834,1.834,0,1,0,1.8,1.833A1.817,1.817,0,0,0,13.4,8.833Zm6,0a1.834,1.834,0,1,0,1.8,1.833A1.817,1.817,0,0,0,19.4,8.833Z" transform="translate(0 0.889)" fill="#46c541"/></g></svg>