<svg xmlns="http://www.w3.org/2000/svg" width="24" height="24" viewBox="0 0 24 24"><g transform="translate(-2 -2.019)"><path d="M5.2,23.609a1.2,1.2,0,0,1-1.2-1.2V15.2a1.2,1.2,0,1,1,2.4,0v7.207A1.2,1.2,0,0,1,5.2,23.609Z" transform="translate(0.4 2.41)" fill="#46c541"/><path d="M26,9.8a5.406,5.406,0,0,1-2.712,4.684,4.8,4.8,0,0,1-8.976,0,5.408,5.408,0,0,1,0-9.369,4.8,4.8,0,0,1,8.976,0A5.406,5.406,0,0,1,26,9.8ZM5.6,8a3.6,3.6,0,0,0-3.6,3.6v3.6a3.6,3.6,0,1,0,7.2,0v-3.6A3.6,3.6,0,0,0,5.6,8Z" transform="translate(0 0)" fill="#c7edd7"/><path d="M16.2,24.816a1.2,1.2,0,0,1-1.2-1.2V9.2a1.2,1.2,0,1,1,2.4,0V23.615A1.2,1.2,0,0,1,16.2,24.816Z" transform="translate(2.6 1.203)" fill="#46c541"/><path d="M24.8,22.4H3.2a1.2,1.2,0,0,1,0-2.4H24.8a1.2,1.2,0,0,1,0,2.4Z" transform="translate(0 3.616)" fill="#c7edd7"/></g></svg>