<svg xmlns="http://www.w3.org/2000/svg" width="24" height="22" viewBox="0 0 24 22"><g transform="translate(-2 -2)"><path d="M24.857,7.236l-1.143-4.4A1.137,1.137,0,0,0,22.571,2H18a1.122,1.122,0,0,0-1.143,1.1A1.122,1.122,0,0,0,18,4.2h2.423c-4.949,6.259-13.966,7.7-17.28,7.7a1.1,1.1,0,1,0,0,2.2c3.611,0,13.383-1.595,18.926-8.393l.5,2.057a1.178,1.178,0,0,0,1.417.836A1.13,1.13,0,0,0,24.857,7.236Z" fill="#46c541"/><path d="M26,11.1v11a1.122,1.122,0,0,1-1.143,1.1H21.429a1.122,1.122,0,0,1-1.143-1.1v-11A1.122,1.122,0,0,1,21.429,10h3.429A1.122,1.122,0,0,1,26,11.1ZM15.714,14.4H12.286a1.122,1.122,0,0,0-1.143,1.1v6.6a1.122,1.122,0,0,0,1.143,1.1h3.429a1.122,1.122,0,0,0,1.143-1.1V15.5A1.122,1.122,0,0,0,15.714,14.4ZM6.571,16.6H3.143A1.122,1.122,0,0,0,2,17.7v4.4a1.122,1.122,0,0,0,1.143,1.1H6.571a1.122,1.122,0,0,0,1.143-1.1V17.7A1.122,1.122,0,0,0,6.571,16.6Z" transform="translate(0 0.8)" fill="#c7edd7"/></g></svg>