<svg xmlns="http://www.w3.org/2000/svg" width="24" height="24" viewBox="0 0 24 24"><rect width="24" height="24" fill="none"/><path d="M35.678,24.137a4.377,4.377,0,0,1-.862-1.078,3.91,3.91,0,0,1-.141-1.313,3.623,3.623,0,0,0-.75-2.672,3.623,3.623,0,0,0-2.672-.75,4.387,4.387,0,0,1-1.312-.141,4.279,4.279,0,0,1-1.078-.862A3.62,3.62,0,0,0,26.5,16a3.62,3.62,0,0,0-2.363,1.322,4.377,4.377,0,0,1-1.078.862,3.91,3.91,0,0,1-1.313.141,3.623,3.623,0,0,0-2.672.75,3.623,3.623,0,0,0-.75,2.672,4.387,4.387,0,0,1-.141,1.313,4.279,4.279,0,0,1-.862,1.078A3.62,3.62,0,0,0,16,26.5a3.62,3.62,0,0,0,1.322,2.362,4.377,4.377,0,0,1,.862,1.078,3.91,3.91,0,0,1,.141,1.313,3.623,3.623,0,0,0,.75,2.672,3.623,3.623,0,0,0,2.672.75,4.387,4.387,0,0,1,1.313.141,4.279,4.279,0,0,1,1.078.862A3.62,3.62,0,0,0,26.5,37a3.62,3.62,0,0,0,2.362-1.322,4.377,4.377,0,0,1,1.078-.862,3.91,3.91,0,0,1,1.313-.141,3.623,3.623,0,0,0,2.672-.75,3.623,3.623,0,0,0,.75-2.672,4.387,4.387,0,0,1,.141-1.312,4.279,4.279,0,0,1,.862-1.078A3.62,3.62,0,0,0,37,26.5,3.62,3.62,0,0,0,35.678,24.137Zm-4.537.656-5.494,5.25a.759.759,0,0,1-.525.206.741.741,0,0,1-.516-.206l-2.747-2.625a.75.75,0,1,1,1.031-1.088l2.231,2.128,4.987-4.753a.75.75,0,0,1,1.031,1.087Z" transform="translate(-14.5 -14.5)" fill="#46c541"/></svg>