<svg xmlns="http://www.w3.org/2000/svg" width="64" height="64" viewBox="0 0 64 64"><g transform="translate(-1154 -900)"><g transform="translate(-26 -12)"><rect width="64" height="64" rx="8" transform="translate(1180 912)" fill="#edfaf5" opacity="0.716"/><g transform="translate(1187.77 938.406) rotate(-30)"><path d="M25,6.4a1.6,1.6,0,1,0-1.824,2.624A8,8,0,0,1,18.6,23.533H14.459l.48-.464A1.607,1.607,0,1,0,12.667,20.8L9.467,24a1.6,1.6,0,0,0,0,2.272l3.2,3.2A1.607,1.607,0,1,0,14.939,27.2l-.48-.464H18.6A11.164,11.164,0,0,0,25,6.4Z" transform="translate(4.197 1.87)" fill="#46c541"/><path d="M22.336,6.666l-3.2-3.2a1.607,1.607,0,0,0-2.272,2.272l.48.464H13.2A11.164,11.164,0,0,0,6.8,26.538a1.6,1.6,0,0,0,1.824-2.624A8,8,0,0,1,13.2,9.4h4.144l-.48.464a1.607,1.607,0,1,0,2.272,2.272l3.2-3.2a1.6,1.6,0,0,0,0-2.272Z" transform="translate(0 0)" fill="#c7edd7"/></g></g></g></svg>