<svg id="コンポーネント_61_5" data-name="コンポーネント 61 – 5" xmlns="http://www.w3.org/2000/svg" width="48" height="48" viewBox="0 0 48 48">
  <g id="グループ_3172" data-name="グループ 3172">
    <rect id="長方形_7429" data-name="長方形 7429" width="48" height="48" rx="12" fill="#fff"/>
    <path id="パス_1789" data-name="パス 1789" d="M4.412,24.746,6.223,19.18a5.206,5.206,0,0,1-1.7-1.469,7.244,7.244,0,0,1-1.133-2.229,8.962,8.962,0,0,1-.4-2.726H20.176a5.021,5.021,0,0,1,.353,1.794,4.354,4.354,0,0,1-.507,2.074,8.672,8.672,0,0,1-1.543,1.994l-.342.343a4.265,4.265,0,0,0-.569.674,1.227,1.227,0,0,0-.182.674,3.55,3.55,0,0,0,.091.686l.854,3.749Zm1.913-1.3H16.7l-.513-2.194a4.153,4.153,0,0,1-.114-.937,2.541,2.541,0,0,1,.245-1.137,3.481,3.481,0,0,1,.666-.92l.342-.343a8.993,8.993,0,0,0,1.344-1.669,2.712,2.712,0,0,0,.421-2.16H4.458A6.116,6.116,0,0,0,5.5,16.769a4.914,4.914,0,0,0,2.386,1.76Zm4.362-3.863a.554.554,0,0,1-.41-.16.53.53,0,0,1-.159-.389.577.577,0,0,1,.159-.417.57.57,0,0,1,.4-.177,6.233,6.233,0,0,0,1.2-.2,4.888,4.888,0,0,0,1.031-.406A4.234,4.234,0,0,0,13.8,17.2a3.821,3.821,0,0,0,.683-.851.574.574,0,0,1,.5-.32.533.533,0,0,1,.376.149.48.48,0,0,1,.159.366.543.543,0,0,1-.068.263,5.384,5.384,0,0,1-.837,1.126,5.147,5.147,0,0,1-1.088.851,5.64,5.64,0,0,1-1.4.577A5.48,5.48,0,0,1,10.688,19.58Zm-7.7-6.823a1.045,1.045,0,0,1,.342-.874,1.34,1.34,0,0,1,.854-.269h8.861a1.364,1.364,0,0,1,.86.269,1.037,1.037,0,0,1,.347.874Zm13.235.331a1.6,1.6,0,0,1-.74-.229q-.421-.229-.456-1.051l-.4-9.211a1.736,1.736,0,0,1,.427-1.383A2.19,2.19,0,0,1,16.633.746H18.98a2.19,2.19,0,0,1,1.577.469A1.736,1.736,0,0,1,20.984,2.6l-.4,9.211q-.034.823-.456,1.051a1.6,1.6,0,0,1-.74.229ZM16.8,12.06h2a.543.543,0,0,0,.336-.091.331.331,0,0,0,.131-.251l.4-9.143a.48.48,0,0,0-.125-.366.471.471,0,0,0-.364-.149H16.428a.476.476,0,0,0-.359.149.47.47,0,0,0-.131.366l.4,9.143a.331.331,0,0,0,.131.251A.543.543,0,0,0,16.8,12.06ZM15.483,5.249V4.106h4.863V5.249Z" transform="translate(12.012 11.254)" fill="#6e7b7b" stroke="rgba(0,0,0,0)" stroke-width="1"/>
  </g>
</svg>
