<svg xmlns="http://www.w3.org/2000/svg" width="40" height="40" viewBox="0 0 40 40">
  <g id="グループ_3748" data-name="グループ 3748" transform="translate(-828 -1183)">
    <rect id="長方形_6028" data-name="長方形 6028" width="40" height="40" rx="12" transform="translate(828 1183)" fill="#e3e8e9"/>
    <g id="pedal_bike_black_24dp" transform="translate(836 1191)">
      <g id="グループ_2316" data-name="グループ 2316">
        <rect id="長方形_6001" data-name="長方形 6001" width="24" height="24" fill="none"/>
        <rect id="長方形_6002" data-name="長方形 6002" width="24" height="24" fill="none"/>
      </g>
      <g id="グループ_2317" data-name="グループ 2317" transform="translate(0 4)">
        <path id="パス_1105" data-name="パス 1105" d="M5.82,10l1.7-4.68A2.008,2.008,0,0,1,9.4,4H11a1,1,0,0,1,1,1h0a1,1,0,0,1-1,1H9.4L7.94,10h4.81l.36-1h-.09a1,1,0,0,1-1-1h0a1,1,0,0,1,1-1H16a1,1,0,0,1,1,1h0a1,1,0,0,1-1,1h-.75l-1.82,5h.67a4.93,4.93,0,0,1,4.65-3.99A5.069,5.069,0,0,1,24,15a5,5,0,0,1-9.9,1H9.9a4.93,4.93,0,0,1-4.65,3.99,5.077,5.077,0,0,1-5.25-5,4.951,4.951,0,0,1,5-5h.82Zm10.36,6a2.947,2.947,0,0,0,3.02,1.99A3.034,3.034,0,0,0,22,15.14,3,3,0,0,0,16.18,14H18a1,1,0,0,1,1,1h0a1,1,0,0,1-1,1ZM9.9,14h1.4l.73-2H9A4.734,4.734,0,0,1,9.9,14ZM5.12,18A3.048,3.048,0,0,0,8,15.08a2.982,2.982,0,0,0-1.05-2.36l-.62,1.7a1,1,0,0,1-1.28.6h0a1,1,0,0,1-.6-1.28l.63-1.73L5.07,12a3,3,0,1,0,.05,6Z" transform="translate(0 -4)" fill="#b9c4c4"/>
      </g>
    </g>
  </g>
</svg>
