<svg id="コンポーネント_64_2" data-name="コンポーネント 64 – 2" xmlns="http://www.w3.org/2000/svg" width="48" height="48" viewBox="0 0 48 48">
  <rect id="長方形_7517" data-name="長方形 7517" width="48" height="48" rx="12" fill="#fff"/>
  <path id="パス_1858" data-name="パス 1858" d="M3.476,13.746a1.944,1.944,0,0,1-1.417-.589,1.9,1.9,0,0,1-.594-1.4V-8.254a1.925,1.925,0,0,1,.589-1.411,1.925,1.925,0,0,1,1.411-.589h20a1.925,1.925,0,0,1,1.411.589,1.925,1.925,0,0,1,.589,1.411v20a2.01,2.01,0,0,1-2,2Zm4.834-3.7h3.509V4.158h1.509a7.948,7.948,0,0,0,3.829-.777,4.588,4.588,0,0,0,2.006-2.034,6.207,6.207,0,0,0,.6-2.709,4.946,4.946,0,0,0-1.474-3.8Q16.813-6.54,13.6-6.54H8.311Zm3.509-8.789v-4.9h1.611a3.122,3.122,0,0,1,2.1.594,2.282,2.282,0,0,1,.674,1.806A2.445,2.445,0,0,1,15.819.186,2.218,2.218,0,0,1,14.7,1a5.158,5.158,0,0,1-1.72.257Z" transform="translate(10.535 22.254)" fill="#6e7b7b" stroke="rgba(0,0,0,0)" stroke-width="1"/>
</svg>
