<svg xmlns="http://www.w3.org/2000/svg" width="40" height="40" viewBox="0 0 40 40">
  <g id="グループ_3746" data-name="グループ 3746" transform="translate(-394 -1183)">
    <g id="長方形_5992" data-name="長方形 5992" transform="translate(394 1183)" fill="#46c541" stroke="#46c541" stroke-width="3">
      <rect width="40" height="40" rx="12" stroke="none"/>
      <rect x="1.5" y="1.5" width="37" height="37" rx="10.5" fill="none"/>
    </g>
    <g id="directions_car_filled_black_24dp" transform="translate(402.266 1191.266)">
      <g id="グループ_2314" data-name="グループ 2314" transform="translate(-0.266 -0.266)">
        <rect id="長方形_6000" data-name="長方形 6000" width="24" height="24" fill="none"/>
      </g>
      <g id="グループ_2315" data-name="グループ 2315" transform="translate(2.734 3.484)">
        <path id="パス_1104" data-name="パス 1104" d="M18.809,6A1.484,1.484,0,0,0,17.4,5H6.476a1.493,1.493,0,0,0-1.41,1L3,11.951V19.4a1.488,1.488,0,0,0,1.49,1.49h0a1.488,1.488,0,0,0,1.49-1.49v-.5H17.9v.5a1.494,1.494,0,0,0,1.49,1.49h0a1.494,1.494,0,0,0,1.49-1.49V11.951Zm-11.34,9.92a1.49,1.49,0,1,1,1.49-1.49A1.488,1.488,0,0,1,7.469,15.923Zm8.937,0a1.49,1.49,0,1,1,1.49-1.49A1.488,1.488,0,0,1,16.406,15.923ZM5.79,9.965,6.823,6.986H17.041l1.033,2.979Z" transform="translate(-3 -5)" fill="#fff"/>
      </g>
    </g>
  </g>
</svg>
