<svg xmlns="http://www.w3.org/2000/svg" xmlns:xlink="http://www.w3.org/1999/xlink" width="40" height="40" viewBox="0 0 40 40">
  <defs>
    <clipPath id="clip-path">
      <rect id="長方形_6270" data-name="長方形 6270" width="22" height="22" fill="#fff"/>
    </clipPath>
  </defs>
  <g id="グループ_3747" data-name="グループ 3747" transform="translate(-610 -1183)">
    <g id="長方形_6003" data-name="長方形 6003" transform="translate(610 1183)" fill="#46c541" stroke="#46c541" stroke-width="3">
      <rect width="40" height="40" rx="12" stroke="none"/>
      <rect x="1.5" y="1.5" width="37" height="37" rx="10.5" fill="none"/>
    </g>
    <g id="グループ_2440" data-name="グループ 2440" transform="translate(619 1192)">
      <g id="グループ_2439" data-name="グループ 2439" clip-path="url(#clip-path)">
        <path id="パス_1143" data-name="パス 1143" d="M20.731,6.769h-.079a.344.344,0,0,1-.344-.344V4.231A4.231,4.231,0,0,0,16.077,0H5.923A4.231,4.231,0,0,0,1.692,4.231V6.425a.343.343,0,0,1-.344.344H1.269A1.269,1.269,0,0,0,0,8.039v2.538a1.269,1.269,0,0,0,1.269,1.269h.079a.343.343,0,0,1,.344.344v4.733a1.692,1.692,0,0,0,1.692,1.692H18.615a1.692,1.692,0,0,0,1.692-1.692V12.19a.344.344,0,0,1,.344-.344h.079A1.269,1.269,0,0,0,22,10.577V8.039a1.269,1.269,0,0,0-1.269-1.269M6.558,1.692h8.885a.635.635,0,1,1,0,1.269H6.558a.635.635,0,0,1,0-1.269M5.077,16.553a1.269,1.269,0,1,1,1.269-1.269,1.269,1.269,0,0,1-1.269,1.269m11.846.053a1.269,1.269,0,1,1,1.269-1.269,1.269,1.269,0,0,1-1.269,1.269M18.615,11a1.692,1.692,0,0,1-1.692,1.692H5.077A1.692,1.692,0,0,1,3.385,11V5.923A1.692,1.692,0,0,1,5.077,4.231H16.923a1.692,1.692,0,0,1,1.692,1.692Z" fill="#fff"/>
        <path id="パス_1144" data-name="パス 1144" d="M12.808,56.615H10.269a.423.423,0,0,0-.422.423v.423a1.692,1.692,0,1,0,3.385,0v-.423a.423.423,0,0,0-.423-.423" transform="translate(-6.462 -37.154)" fill="#fff"/>
        <path id="パス_1145" data-name="パス 1145" d="M47.269,56.615H44.731a.423.423,0,0,0-.423.423v.423a1.692,1.692,0,1,0,3.385,0v-.423a.423.423,0,0,0-.423-.423" transform="translate(-29.077 -37.154)" fill="#fff"/>
      </g>
    </g>
  </g>
</svg>
