<svg id="コンポーネント_63_2" data-name="コンポーネント 63 – 2" xmlns="http://www.w3.org/2000/svg" width="48" height="48" viewBox="0 0 48 48">
  <rect id="長方形_7516" data-name="長方形 7516" width="48" height="48" rx="12" fill="#fff"/>
  <path id="パス_1857" data-name="パス 1857" d="M16.019,24.746a15.052,15.052,0,0,1-3.273-.3,8.169,8.169,0,0,1-2.228-.811,6.542,6.542,0,0,1-1.5-1.137,10.226,10.226,0,0,1-1.062-1.3q-.458-.669-.928-1.286a5.4,5.4,0,0,0-1.108-1.086,5.092,5.092,0,0,0-1.19-.623q-.725-.28-1.456-.617a4.093,4.093,0,0,1-1.224-.84,1.767,1.767,0,0,1-.493-1.291q0-1.577,2.176-2.411a18.391,18.391,0,0,1,6.3-.834,32.379,32.379,0,0,1,6.116.543,21.491,21.491,0,0,1,4.938,1.52,9.909,9.909,0,0,1,3.3,2.3,4.222,4.222,0,0,1,1.178,2.863,3.457,3.457,0,0,1-.737,2.137,6.312,6.312,0,0,1-2.043,1.686,11.6,11.6,0,0,1-3.035,1.1A16.973,16.973,0,0,1,16.019,24.746Zm0-1.257a15.163,15.163,0,0,0,4.155-.526,7.715,7.715,0,0,0,2.919-1.44,2.7,2.7,0,0,0,1.074-2.091A3.289,3.289,0,0,0,23.1,17.1a9.192,9.192,0,0,0-2.988-1.9,20.808,20.808,0,0,0-4.491-1.274,31.962,31.962,0,0,0-5.588-.457,19.2,19.2,0,0,0-5.3.549q-1.781.549-1.781,1.44a.927.927,0,0,0,.441.731,5.759,5.759,0,0,0,1.085.623q.644.291,1.271.56a4.708,4.708,0,0,1,.986.543,6.046,6.046,0,0,1,1.311,1.331q.522.737,1.062,1.48a6.925,6.925,0,0,0,1.34,1.371,6.217,6.217,0,0,0,2.124,1.011A12.733,12.733,0,0,0,16.019,23.489ZM13.988,17.9a2.607,2.607,0,0,1-1.358-.309.923.923,0,0,1-.511-.811.91.91,0,0,1,.511-.806,2.647,2.647,0,0,1,1.358-.3,2.647,2.647,0,0,1,1.358.3.91.91,0,0,1,.511.806.923.923,0,0,1-.511.811A2.607,2.607,0,0,1,13.988,17.9Zm-.638-1.326V1.192A.366.366,0,0,1,13.535.86a.781.781,0,0,1,.418-.114.752.752,0,0,1,.406.109.369.369,0,0,1,.174.337V16.575Zm1.044-6.709-.72-.663A2.357,2.357,0,0,1,14.841,8,26.382,26.382,0,0,1,18.12,6.46l.685-.286A20.757,20.757,0,0,0,21,5.135a11.36,11.36,0,0,0,1.219-.777,19.977,19.977,0,0,1-3.389-.411,18.206,18.206,0,0,1-3.679-1.234q-.534-.24-.778-.331t-.429-.149V1.043q.453.183.905.36t.9.349l.9.343a18.214,18.214,0,0,0,3.5.926,24.041,24.041,0,0,0,3.859.3,2.059,2.059,0,0,1-.4,1.16,5.007,5.007,0,0,1-1.445,1.257A19.372,19.372,0,0,1,19.152,7.2l-.673.274q-1.335.549-2.188.977a8.725,8.725,0,0,0-1.306.771A1.9,1.9,0,0,0,14.394,9.866Z" transform="translate(10.941 11.754)" fill="#6e7b7b" stroke="#6e7b7b" stroke-width="0.2"/>
</svg>
