<svg id="グループ_2290" data-name="グループ 2290" xmlns="http://www.w3.org/2000/svg" width="18" height="18" viewBox="0 0 18 18">
  <rect id="長方形_5948" data-name="長方形 5948" width="18" height="18" fill="none"/>
  <path id="パス_1077" data-name="パス 1077" d="M20.375,43.487v-.394c0-1.765-2.658-3.094-6.187-3.094S8,41.329,8,43.094v2.813c0,1.47,1.842,2.637,4.5,2.988v.387c0,1.765,2.658,3.094,6.188,3.094s6.188-1.329,6.188-3.094V46.469C24.875,45.013,23.089,43.846,20.375,43.487ZM12.5,47.748V46.082a13.553,13.553,0,0,0,3.375,0v1.666a11.313,11.313,0,0,1-3.375,0Zm6.75-2.834v.991c0,.591-.872,1.223-2.25,1.61V45.871A6.579,6.579,0,0,0,19.25,44.915Zm-10.125.991v-.991a6.579,6.579,0,0,0,2.25.956v1.645C10,47.13,9.125,46.5,9.125,45.906Zm4.5,3.375v-.3l.563.014q.415,0,.8-.021c.281.1.577.183.886.26v1.652C14.5,50.5,13.625,49.872,13.625,49.281ZM17,51.123V49.45a13.248,13.248,0,0,0,1.688.112,12.939,12.939,0,0,0,1.687-.105v1.666a11.313,11.313,0,0,1-3.375,0Zm4.5-.232V49.246a6.579,6.579,0,0,0,2.25-.956v.991C23.75,49.872,22.878,50.5,21.5,50.891Z" transform="translate(-7.438 -37.188)" fill="#6e7b7b"/>
</svg>
