<svg xmlns="http://www.w3.org/2000/svg" width="40" height="40" viewBox="0 0 40 40">
  <g id="グループ_3749" data-name="グループ 3749" transform="translate(-1012 -1183)">
    <rect id="長方形_6084" data-name="長方形 6084" width="40" height="40" rx="12" transform="translate(1012 1183)" fill="#e3e8e9"/>
    <g id="ev_station_black_24dp" transform="translate(1020 1191)">
      <path id="パス_1108" data-name="パス 1108" d="M0,0H24V24H0Z" fill="none"/>
      <path id="パス_1109" data-name="パス 1109" d="M19.77,7.23l.01-.01L16.59,4.03a.75.75,0,0,0-1.06,1.06l1.58,1.58a2.485,2.485,0,0,0-1.58,2.71,2.536,2.536,0,0,0,2.2,2.11,2.439,2.439,0,0,0,1.27-.2V18.5a1,1,0,1,1-2,0V14a2.006,2.006,0,0,0-2-2H14V5a2.006,2.006,0,0,0-2-2H6A2.006,2.006,0,0,0,4,5V20a1,1,0,0,0,1,1h8a1,1,0,0,0,1-1V13.5h1.5v4.86a2.6,2.6,0,0,0,2.24,2.63A2.5,2.5,0,0,0,20.5,18.5V9A2.5,2.5,0,0,0,19.77,7.23ZM18,10a1,1,0,1,1,1-1A1,1,0,0,1,18,10ZM8,16.12V13.5H6.83a.5.5,0,0,1-.44-.74l2.67-5A.5.5,0,0,1,10,8v3h1.14a.5.5,0,0,1,.43.75L8.93,16.37A.5.5,0,0,1,8,16.12Z" transform="translate(0)" fill="#b9c4c4"/>
    </g>
  </g>
</svg>
