<svg xmlns="http://www.w3.org/2000/svg" width="30" height="30" viewBox="0 0 30 30">
  <g id="グループ_3618" data-name="グループ 3618" transform="translate(-0.479)">
    <rect id="長方形_5768" data-name="長方形 5768" width="30" height="30" transform="translate(0.479)" fill="none"/>
    <path id="パス_1012" data-name="パス 1012" d="M37.91,25.06a4.873,4.873,0,0,1-.96-1.2,4.354,4.354,0,0,1-.157-1.461,4.034,4.034,0,0,0-.835-2.975,4.034,4.034,0,0,0-2.975-.835,4.884,4.884,0,0,1-1.461-.157,4.765,4.765,0,0,1-1.2-.96A4.031,4.031,0,0,0,27.691,16a4.031,4.031,0,0,0-2.63,1.472,4.873,4.873,0,0,1-1.2.96,4.353,4.353,0,0,1-1.461.157,4.034,4.034,0,0,0-2.975.835,4.034,4.034,0,0,0-.835,2.975,4.884,4.884,0,0,1-.157,1.461,4.765,4.765,0,0,1-.96,1.2A4.031,4.031,0,0,0,16,27.691a4.031,4.031,0,0,0,1.472,2.63,4.873,4.873,0,0,1,.96,1.2,4.353,4.353,0,0,1,.157,1.461,4.034,4.034,0,0,0,.835,2.975,4.034,4.034,0,0,0,2.975.835,4.885,4.885,0,0,1,1.461.157,4.765,4.765,0,0,1,1.2.96,4.031,4.031,0,0,0,2.63,1.472,4.031,4.031,0,0,0,2.63-1.472,4.873,4.873,0,0,1,1.2-.96,4.354,4.354,0,0,1,1.461-.157,4.034,4.034,0,0,0,2.975-.835,4.034,4.034,0,0,0,.835-2.975,4.885,4.885,0,0,1,.157-1.461,4.765,4.765,0,0,1,.96-1.2,4.031,4.031,0,0,0,1.472-2.63A4.031,4.031,0,0,0,37.91,25.06Zm-5.052.731-6.117,5.845a.846.846,0,0,1-.585.23.825.825,0,0,1-.574-.23l-3.058-2.923A.835.835,0,1,1,23.672,27.5l2.484,2.369,5.553-5.292a.835.835,0,0,1,1.148,1.211Z" transform="translate(-13 -13)" fill="#46c541"/>
  </g>
</svg>
