<svg id="グループ_2287" data-name="グループ 2287" xmlns="http://www.w3.org/2000/svg" width="18" height="18" viewBox="0 0 18 18">
  <rect id="長方形_5945" data-name="長方形 5945" width="18" height="18" fill="none"/>
  <path id="パス_1074" data-name="パス 1074" d="M31.313,24a7.313,7.313,0,1,0,7.313,7.313A7.313,7.313,0,0,0,31.313,24Zm-.141,3.375a.844.844,0,1,1-.844.844A.844.844,0,0,1,31.172,27.375Zm.7,7.875h-.562a.563.563,0,0,1-.562-.562V31.313a.563.563,0,0,1,0-1.125h.562a.563.563,0,0,1,.563.563v3.375a.562.562,0,0,1,0,1.125Z" transform="translate(-22.313 -22.313)" fill="#6e7b7b"/>
</svg>
