<svg id="close_black_24dp" xmlns="http://www.w3.org/2000/svg" width="20" height="20" viewBox="0 0 20 20">
  <path id="パス_1084" data-name="パス 1084" d="M0,0H20V20H0Z" fill="none"/>
  <path id="パス_1085" data-name="パス 1085" d="M15.367,5.641a.769.769,0,0,0-1.089,0L10.5,9.411,6.723,5.633A.77.77,0,0,0,5.633,6.723L9.411,10.5,5.633,14.277a.77.77,0,0,0,1.089,1.089L10.5,11.589l3.777,3.777a.77.77,0,0,0,1.089-1.089L11.589,10.5l3.777-3.777A.774.774,0,0,0,15.367,5.641Z" transform="translate(-0.5 -0.5)" fill="#9fa9a9"/>
</svg>
