<svg xmlns="http://www.w3.org/2000/svg" width="56" height="56" viewBox="0 0 56 56"><g transform="translate(-480 -495)"><rect width="56" height="56" rx="6" transform="translate(480 495)" fill="#edfaf5"/><g transform="translate(-7737 -2293)"><path d="M0,0H32V32H0Z" transform="translate(8229 2800)" fill="none"/><g transform="translate(8231 2806)"><path d="M8255.468,2820.1a1.937,1.937,0,0,1-1.869-2v-3.992h-20.531v3.992a1.872,1.872,0,1,1-3.734,0v-5.992a1.936,1.936,0,0,1,1.867-2h24.268a1.937,1.937,0,0,1,1.865,2v5.992A1.937,1.937,0,0,1,8255.468,2820.1Z" transform="translate(-8229.333 -2798.1)" fill="#46c541"/><rect width="28" height="10" rx="1" fill="#46c541"/></g></g></g></svg>