<svg xmlns="http://www.w3.org/2000/svg" width="56" height="56" viewBox="0 0 56 56"><g transform="translate(-480 -1125)"><rect width="56" height="56" rx="6" transform="translate(480 1125)" fill="#f0f3f8"/><g transform="translate(492 1137)"><rect width="32" height="32" fill="none"/><path d="M35.737,42.29a.988.988,0,0,1-.062,1.412,1.025,1.025,0,0,1-.675.262,1,1,0,0,1-.737-.325l-5.3-5.825A1.988,1.988,0,0,1,27,39.465H10a2,2,0,0,1-2-2v-15a2,2,0,0,1,2-2h3.2L10.625,17.64a1,1,0,0,1,.063-1.413.988.988,0,0,1,1.413.063Zm1.95-19.05A.988.988,0,0,0,36.5,23.1l-5,2.85a1,1,0,0,0-.5.875V33.1a1,1,0,0,0,.5.875l5,2.85a1.037,1.037,0,0,0,.5.138.987.987,0,0,0,.725-.312A1,1,0,0,0,38,35.94V23.99a1,1,0,0,0-.312-.75ZM27.263,29.99a1,1,0,0,0,1.225.2A1.025,1.025,0,0,0,29,29.278V22.465a2,2,0,0,0-2-2H20.888a1.062,1.062,0,0,0-.825.387,1,1,0,0,0,.063,1.288Z" transform="translate(-7 -13.965)" fill="#c0cada"/></g></g></svg>