<svg xmlns="http://www.w3.org/2000/svg" width="56" height="56" viewBox="0 0 56 56"><g transform="translate(-480 -1035)"><rect width="56" height="56" rx="6" transform="translate(480 1035)" fill="#fef2f2"/><g transform="translate(492 1047)"><rect width="32" height="32" fill="none"/><path d="M29,57V69a2,2,0,0,1-2,2H13a5,5,0,0,1-5-5V54a2,2,0,0,1,2-2H24A5,5,0,0,1,29,57Zm8.5-2.362a.963.963,0,0,0-1,0l-5,2.85a1,1,0,0,0-.5.875v6.275a1,1,0,0,0,.5.875l5,2.85a1.037,1.037,0,0,0,.5.138,1,1,0,0,0,.5-.138A.975.975,0,0,0,38,67.5v-12a.975.975,0,0,0-.5-.862Z" transform="translate(-7 -45.5)" fill="#eb7357"/></g></g></svg>