<svg xmlns="http://www.w3.org/2000/svg" width="48" height="48" viewBox="0 0 48 48"><g transform="translate(-392 -923)"><rect width="48" height="48" rx="8" transform="translate(392 923)" fill="#f2f5fa"/><g transform="translate(402 933)"><path d="M24.889,0H3.111A3.111,3.111,0,0,0,0,3.111v21H28v-21A3.111,3.111,0,0,0,24.889,0Z" fill="#88bfff"/><circle cx="7.49" cy="7.49" r="7.49" transform="translate(6.51 6.51)" fill="#ffda20"/><path d="M31.21,28.667V24.981C28.966,22.015,24.847,17,22.655,17c-2.083,0-5.906,4.529-8.208,7.525v7.253H28.1A3.111,3.111,0,0,0,31.21,28.667Z" transform="translate(-3.21 -3.778)" fill="#63c977"/><path d="M7,23c-1.749,0-4.727,3.2-7,5.994V30a3.111,3.111,0,0,0,3.111,3.111h14a66.4,66.4,0,0,0-5.875-7.253C9.659,24.244,8.09,23,7,23Z" transform="translate(0 -5.111)" fill="#29b163"/></g></g></svg>