<svg xmlns="http://www.w3.org/2000/svg" width="72" height="72" viewBox="0 0 72 72"><g transform="translate(-392 -323)"><rect width="72" height="72" rx="4" transform="translate(392 323)" fill="#f2f5fa"/><g transform="translate(-7821 -2461)"><path d="M0,0H40V40H0Z" transform="translate(8229 2800)" fill="none"/><g transform="translate(8231.353 2807.059)"><path d="M8262,2822.6a2.423,2.423,0,0,1-2.337-2.5v-4.99H8234v4.99a2.339,2.339,0,1,1-4.668,0v-7.49a2.421,2.421,0,0,1,2.335-2.5H8262a2.42,2.42,0,0,1,2.331,2.5v7.49A2.42,2.42,0,0,1,8262,2822.6Z" transform="translate(-8229.186 -2794.657)" fill="#415964"/><rect width="36" height="13" rx="1" transform="translate(-0.353 -0.059)" fill="#415964"/></g></g></g></svg>