<svg xmlns="http://www.w3.org/2000/svg" width="60" height="60" viewBox="0 0 60 60"><g transform="translate(-653 -818)"><rect width="60" height="60" rx="8" transform="translate(653 818)" fill="#f1f7fe"/><g transform="translate(667.332 832.332)"><rect width="32" height="32" transform="translate(-0.332 -0.332)" fill="none"/><path d="M56.434,42.079a.967.967,0,0,1-.967.967H45.8a.967.967,0,0,1,0-1.934h9.668A.967.967,0,0,1,56.434,42.079Zm4.834-15.469a10.6,10.6,0,0,1-4.061,8.363,1.946,1.946,0,0,0-.773,1.547v.725A1.934,1.934,0,0,1,54.5,39.179H46.766a1.934,1.934,0,0,1-1.934-1.934V36.52a1.958,1.958,0,0,0-.749-1.535,10.638,10.638,0,1,1,17.185-8.375ZM57.3,25.475a6.743,6.743,0,0,0-5.535-5.523.968.968,0,1,0-.314,1.909,4.8,4.8,0,0,1,3.94,3.94.967.967,0,0,0,.955.8h.169a.955.955,0,0,0,.786-1.124Z" transform="translate(-34.965 -13.843)" fill="#2a81e8"/></g></g></svg>