<svg xmlns="http://www.w3.org/2000/svg" width="48" height="48" viewBox="0 0 48 48"><g transform="translate(-392 -483)"><rect width="48" height="48" rx="8" transform="translate(392 483)" fill="#f2f5fa"/><g transform="translate(399.667 489.857)"><path d="M16.333,3.143C7.313,3.143,0,9.411,0,17.143a12.091,12.091,0,0,0,.333,2.824c1.614,2.778,2.731,1.024,7.834-1.527,5.2-2.6,0,3.63-1.815,7.259a2.284,2.284,0,0,0,.508,2.835,18.133,18.133,0,0,0,9.473,2.61c9.021,0,16.333-6.267,16.333-14s-7.313-14-16.333-14Zm2.585,22.183c-.358,1.221-2.232,1.746-4.186,1.171s-3.247-2.027-2.888-3.249,2.232-1.746,4.186-1.171,3.247,2.026,2.888,3.249Z" fill="#e3dfd5"/><path d="M2.722,0A2.722,2.722,0,1,1,0,2.722,2.722,2.722,0,0,1,2.722,0Z" transform="translate(6.352 7.55)" fill="#46c541"/><circle cx="2.722" cy="2.722" r="2.722" transform="translate(15.426 5.735)" fill="#2a81e8"/><circle cx="2.722" cy="2.722" r="2.722" transform="translate(23.593 11.18)" fill="#eb7357"/><circle cx="2.722" cy="2.722" r="2.722" transform="translate(22.685 19.347)" fill="#ffda20"/></g></g></svg>