<svg xmlns="http://www.w3.org/2000/svg" xmlns:xlink="http://www.w3.org/1999/xlink" width="62" height="62" viewBox="0 0 62 62"><defs><filter id="a" x="0" y="0" width="62" height="62" filterUnits="userSpaceOnUse"><feOffset dy="3" input="SourceAlpha"/><feGaussianBlur stdDeviation="5" result="b"/><feFlood flood-opacity="0.102"/><feComposite operator="in" in2="b"/><feComposite in="SourceGraphic"/></filter></defs><g transform="translate(-817 -1328)"><g transform="matrix(1, 0, 0, 1, 817, 1328)" filter="url(#a)"><circle cx="16" cy="16" r="16" transform="translate(15 12)" fill="#e2e7f0"/></g><g transform="translate(837.333 1345.333)"><path d="M0,0H21.333V21.333H0Z" fill="none"/><path d="M16.868,5.676a.885.885,0,0,0-1.253,0l-4.347,4.338L6.921,5.667A.886.886,0,0,0,5.667,6.921l4.347,4.347L5.667,15.614a.886.886,0,0,0,1.253,1.253l4.347-4.347,4.347,4.347a.886.886,0,0,0,1.253-1.253l-4.347-4.347,4.347-4.347A.891.891,0,0,0,16.868,5.676Z" transform="translate(-0.601 -0.601)" fill="#fff"/></g></g></svg>