<svg xmlns="http://www.w3.org/2000/svg" width="32" height="32" viewBox="0 0 32 32"><g transform="translate(-1500 -354)"><rect width="32" height="32" rx="8" transform="translate(1500 354)" fill="#2a81e8"/><g transform="translate(1506.332 360.332)"><rect width="20" height="20" transform="translate(-0.332 -0.332)" fill="none"/><path d="M50.271,32.289a.6.6,0,0,1-.6.6H43.624a.6.6,0,0,1,0-1.208h6.042A.6.6,0,0,1,50.271,32.289Zm3.021-9.668a6.624,6.624,0,0,1-2.538,5.227,1.216,1.216,0,0,0-.483.967v.453a1.208,1.208,0,0,1-1.208,1.208H44.228a1.208,1.208,0,0,1-1.208-1.208v-.453a1.224,1.224,0,0,0-.468-.959,6.648,6.648,0,1,1,10.741-5.234Zm-2.477-.71a4.215,4.215,0,0,0-3.459-3.452.6.6,0,1,0-.2,1.193,3,3,0,0,1,2.462,2.462.6.6,0,0,0,.6.5h.106a.6.6,0,0,0,.491-.7Z" transform="translate(-36.977 -14.766)" fill="#fff"/></g></g></svg>