<svg xmlns="http://www.w3.org/2000/svg" width="48" height="48" viewBox="0 0 48 48"><g transform="translate(-958 -483)"><rect width="48" height="48" rx="8" transform="translate(958 483)" fill="#f2f5fa"/><g transform="translate(968 493)"><path d="M19.111,4.7A1.556,1.556,0,1,1,16,4.7V1.566a1.556,1.556,0,1,1,3.111,0Z" transform="translate(-3.556)" fill="#ffda20"/><path d="M8.849,31.3a1.158,1.158,0,0,1-.518-.124A1.183,1.183,0,0,1,7.812,29.6l6.953-14.1a1.152,1.152,0,0,1,2.074,0l6.954,14.1a1.183,1.183,0,0,1-.518,1.577,1.153,1.153,0,0,1-1.555-.526l-5.917-12-5.917,12A1.159,1.159,0,0,1,8.849,31.3Z" transform="translate(-1.709 -3.3)" fill="#657f8a"/><path d="M14.81,16.811a.766.766,0,0,1-.546-.229L3.447,5.616a.791.791,0,0,1,0-1.108.765.765,0,0,1,1.092,0L14.81,14.92,25.079,4.507a.766.766,0,0,1,1.093,0,.791.791,0,0,1,0,1.108L15.357,16.582a.771.771,0,0,1-.547.229Z" transform="translate(-0.716 -0.951)" fill="#1c323e"/><path d="M26.951,15.8A12.447,12.447,0,0,1,14.589,28.335,12.447,12.447,0,0,1,2.228,15.8,12.447,12.447,0,0,1,14.589,3.272,12.447,12.447,0,0,1,26.951,15.8Z" transform="translate(-0.495 -0.727)" fill="#dd2e44"/><path d="M24.743,16.7a9.272,9.272,0,1,1-9.271-9.4A9.335,9.335,0,0,1,24.743,16.7Z" transform="translate(-1.378 -1.622)" fill="#fff"/><path d="M23.364,1.257a4.588,4.588,0,0,0-3.278,1.377l6.556,6.645A4.717,4.717,0,0,0,28,5.956,4.669,4.669,0,0,0,23.364,1.257Zm-18.729,0A4.589,4.589,0,0,1,7.913,2.634L1.357,9.279A4.717,4.717,0,0,1,0,5.956a4.668,4.668,0,0,1,4.636-4.7Z" transform="translate(0 -0.279)" fill="#ffda20"/><path d="M21.667,17.556H17.778A.778.778,0,0,1,17,16.778v-7a.778.778,0,1,1,1.556,0V16h3.111a.778.778,0,1,1,0,1.556Z" transform="translate(-3.778 -2)" fill="#1c323e"/></g></g></svg>