<svg xmlns="http://www.w3.org/2000/svg" width="48" height="48" viewBox="0 0 48 48"><g transform="translate(-966 -1334)"><rect width="48" height="48" rx="8" transform="translate(966 1334)" fill="#f2f5fa"/><g transform="translate(975 1343)"><path d="M1.647,8.412A1.613,1.613,0,0,0,0,10.059v9.882a1.613,1.613,0,0,0,1.647,1.647H6.588l6.588,6.588A2.875,2.875,0,0,0,14.824,29h.824a.807.807,0,0,0,.824-.824V1.824A.807.807,0,0,0,15.647,1h-.824a2.875,2.875,0,0,0-1.647.824L6.588,8.412Z" fill="#415964"/><path d="M8,21.588l6.588,6.588A2.875,2.875,0,0,0,16.235,29h.824a.807.807,0,0,0,.824-.824V1.824A.807.807,0,0,0,17.059,1h-.824a2.875,2.875,0,0,0-1.647.824L8,8.412Z" transform="translate(-1.412)" fill="#cdd5e2"/><path d="M28.833,27.093a.779.779,0,0,1-.506-1.372,13.306,13.306,0,0,0,0-20.242.78.78,0,0,1,1.012-1.186,14.864,14.864,0,0,1,0,22.613A.777.777,0,0,1,28.833,27.093Z" transform="translate(-4.95 -0.548)" fill="#415964"/><path d="M26.106,25.1a.765.765,0,0,1-.488-1.355,9.94,9.94,0,0,0,.068-15.285.765.765,0,0,1,.985-1.171,11.468,11.468,0,0,1-.079,17.634.756.756,0,0,1-.487.176Z" transform="translate(-4.472 -1.079)" fill="#415964"/><path d="M23.52,23.14A.823.823,0,0,1,23,21.681a6.59,6.59,0,0,0-.05-10.231.824.824,0,0,1,1.033-1.283,8.236,8.236,0,0,1,.063,12.785A.816.816,0,0,1,23.52,23.14Z" transform="translate(-3.995 -1.586)" fill="#415964"/></g></g></svg>