<svg xmlns="http://www.w3.org/2000/svg" width="48" height="48" viewBox="0 0 48 48"><g transform="translate(-966 -923)"><rect width="48" height="48" rx="8" transform="translate(966 923)" fill="#f2f5fa"/><g transform="translate(975 932)"><path d="M28.237,15l-3.979,2.471H23.235V14.176c0-.072-.016-.139-.021-.211A6.585,6.585,0,1,0,15,7.588a6.513,6.513,0,0,0,.905,3.294H12.464a5.762,5.762,0,1,0-8.169,4.379v8.8a3.294,3.294,0,0,0,3.294,3.294H19.941a3.294,3.294,0,0,0,3.294-3.294V21.588h1.023l3.979,2.471H29V15Zm-4.4-11.548a4.7,4.7,0,0,1,2.457,4.086l-2.908-.484a1.875,1.875,0,0,0-.48-.809l.931-2.793Zm-.741,5.223,2.925.488a4.7,4.7,0,0,1-3.47,3.022,3.282,3.282,0,0,0-1.146-.945l.515-1.8A2,2,0,0,0,23.093,8.674Zm-1.5-5.793a4.654,4.654,0,0,1,.682.055L21.339,5.73a1.867,1.867,0,0,0-.89.367L17.816,4.782A4.7,4.7,0,0,1,21.588,2.882ZM16.882,7.588a4.725,4.725,0,0,1,.194-1.334l2.63,1.315,0,.019a1.864,1.864,0,0,0,.635,1.369l-.55,1.925H18.249A4.665,4.665,0,0,1,16.882,7.588ZM9.4,7.271a3.822,3.822,0,0,1,1.211,2.788,3.877,3.877,0,0,1-.093.824H8.494a1.892,1.892,0,0,0-.131-1.888L9.4,7.271ZM6.765,6.215A3.812,3.812,0,0,1,7.98,6.43L6.946,8.155c-.06-.006-.119-.018-.181-.018A1.91,1.91,0,0,0,5.7,8.46L3.977,7.426A3.822,3.822,0,0,1,6.765,6.215ZM2.921,10.059a3.821,3.821,0,0,1,.215-1.216L4.862,9.878c-.006.06-.018.119-.018.181a1.911,1.911,0,0,0,.749,1.513,3.283,3.283,0,0,0-1.114,1.561A3.827,3.827,0,0,1,2.921,10.059Z" fill="#1c323e"/><circle cx="1.647" cy="1.647" r="1.647" transform="translate(18.294 14.176)" fill="#657f8a"/><circle cx="1.647" cy="1.647" r="1.647" transform="translate(5.941 14.176)" fill="#657f8a"/><path d="M21.353,26.647A1.648,1.648,0,0,0,19.706,25H10.647A1.648,1.648,0,0,0,9,26.647v4.941a1.648,1.648,0,0,0,1.647,1.647h9.059a1.648,1.648,0,0,0,1.647-1.647Z" transform="translate(-1.412 -4.235)" fill="#657f8a"/></g></g></svg>