<svg xmlns="http://www.w3.org/2000/svg" width="48" height="48" viewBox="0 0 48 48"><g transform="translate(-392 -1334)"><rect width="48" height="48" rx="8" transform="translate(392 1334)" fill="#f2f5fa"/><g transform="translate(402.53 1344)"><path d="M14.7,0A11.7,11.7,0,0,0,3,11.7v7.018H5.339V11.7a9.252,9.252,0,0,1,9.358-9.5,9.252,9.252,0,0,1,9.358,9.5v7.8l2.339-.78V11.7A11.7,11.7,0,0,0,14.7,0Z" transform="translate(-0.661)" fill="#415964"/><path d="M4.679,24.578a1.56,1.56,0,0,1-1.56,1.56H1.56A1.56,1.56,0,0,1,0,24.578V17.56A1.56,1.56,0,0,1,1.56,16h1.56a1.56,1.56,0,0,1,1.56,1.56Zm23.394,0a1.56,1.56,0,0,1-1.56,1.56h-1.56a1.56,1.56,0,0,1-1.56-1.56V17.56A1.56,1.56,0,0,1,24.953,16h1.56a1.56,1.56,0,0,1,1.56,1.56Z" transform="translate(0 -3.523)" fill="#1c323e"/><path d="M16.031,10.012l-4.963,1.024a.836.836,0,0,0-.638.783V24.44A4.849,4.849,0,0,0,8.8,24.159c-2.172,0-3.932,1.369-3.932,3.058S6.632,30.2,8.8,30.2c2.134,0,3.906-1.487,3.967-3.047V14.983l3.278-.68a.821.821,0,0,0,.621-.783V10.532A.511.511,0,0,0,16.031,10.012Zm6.238,2.457-3.351.675a.887.887,0,0,0-.69.782V22.82c0-.119-.685-.187-1.092-.187-1.578,0-2.833,1-2.833,2.224S15.6,27.08,17.175,27.08s2.867-1,2.867-2.223l-.011-8.8,2.237-.466a.835.835,0,0,0,.638-.782V12.99A.512.512,0,0,0,22.269,12.469Z" transform="translate(-1.073 -2.202)" fill="#f87730"/></g></g></svg>