<svg xmlns="http://www.w3.org/2000/svg" xmlns:xlink="http://www.w3.org/1999/xlink" width="372" height="122" viewBox="0 0 372 122"><defs><clipPath id="a"><rect width="372" height="122" rx="4" fill="#e2e7f0" style="mix-blend-mode:multiply;isolation:isolate"/></clipPath></defs><g clip-path="url(#a)"><rect width="372" height="122" rx="4" fill="#edfaf5"/><rect width="372" height="122" rx="4" fill="#f2f5fa"/><g transform="translate(201 25.935)" style="isolation:isolate"><g transform="translate(-12.953 43.159) rotate(-30)"><g transform="translate(0 0)"><g transform="translate(0 5.295)"><rect width="20.727" height="4.618" transform="translate(0 8.556)" fill="#e2e7f0"/><rect width="25.334" height="4.618" transform="translate(43.76 8.556)" fill="#e2e7f0"/><path d="M40.781,9.233,31.569,0,28.313,3.264l5.28,5.292H0v4.618H18.426V61.651H0v4.618H20.727a2.306,2.306,0,0,0,2.3-2.309V13.174H33.593l-5.28,5.292,3.256,3.264L40.781,12.5a2.31,2.31,0,0,0,0-3.264Z" transform="translate(96.731 0)" fill="#e2e7f0"/><path d="M13.143,7.881l5.28,5.292L21.679,9.91,12.468.677a2.3,2.3,0,0,0-3.256,0L0,9.91l3.256,3.264,5.28-5.292V39.243a2.306,2.306,0,0,0,2.3,2.309H47.691V36.935H13.143Z" transform="translate(21.402 24.716)" fill="#e2e7f0"/></g><ellipse cx="16.122" cy="16.16" rx="16.122" ry="16.16" transform="translate(16.122)" fill="#ffda20"/><rect width="36.849" height="27.702" transform="translate(64.487 2.309)" fill="#46c541"/><path d="M23.033,27.7H36.849V0H0V27.7H13.819" transform="translate(64.487 55.404)" fill="#46c541"/><g transform="translate(70.246 2.309)" opacity="0.481" style="mix-blend-mode:multiply;isolation:isolate"><path d="M0,27.7H31.09V0H27.637Z" transform="translate(0 0)" fill="#46c541"/></g><path d="M0,27.7H31.09V0H27.637Z" transform="translate(70.246 55.404)" fill="#46c541" opacity="0.481" style="mix-blend-mode:multiply;isolation:isolate"/><g transform="translate(22.496 6.389)" opacity="0.44" style="mix-blend-mode:multiply;isolation:isolate"><path d="M0,22.621a16.009,16.009,0,0,0,9.749,3.311A16.146,16.146,0,0,0,22.568,0Z" transform="translate(0 0)" fill="#ffb531"/></g><rect width="4.607" height="4.618" transform="translate(101.336 13.851)" fill="#415964" opacity="0.5" style="mix-blend-mode:multiply;isolation:isolate"/><rect width="4.607" height="4.618" transform="translate(101.336 66.946)" fill="#415964" opacity="0.5" style="mix-blend-mode:multiply;isolation:isolate"/><rect width="4.607" height="4.618" transform="translate(59.882 13.851)" fill="#415964" opacity="0.5" style="mix-blend-mode:multiply;isolation:isolate"/><rect width="4.607" height="4.618" transform="translate(59.882 66.946)" fill="#415964" opacity="0.5" style="mix-blend-mode:multiply;isolation:isolate"/><g transform="translate(63.101 80.076)"><path d="M49.145,18.533a4.612,4.612,0,0,0-5.38,4.554,4.607,4.607,0,1,0-9.214,0,4.607,4.607,0,1,0-9.214,0V4.865A4.785,4.785,0,0,0,21.5.064a4.612,4.612,0,0,0-5.38,4.554v32.32l-9.6-5.775a4.06,4.06,0,0,0-3.912-.15l-.363.18A4.075,4.075,0,0,0,0,34.84H0a4.076,4.076,0,0,0,1.7,3.316L16.122,48.48H52.971V23.334a4.785,4.785,0,0,0-3.832-4.8Z" transform="translate(0 0)" fill="#fde2c6"/><g transform="translate(17.659 18.475)" opacity="0.24" style="mix-blend-mode:multiply;isolation:isolate"><path d="M31.486.057a4.714,4.714,0,0,0-1-.05C22.706,13.964,9.76,23.963,0,30.007H35.321V4.861A4.785,4.785,0,0,0,31.489.06Z" transform="translate(0 0)" fill="#fec9a3"/></g></g></g></g></g></g><text transform="translate(32 38)" fill="#202323" font-size="16" font-family="HiraginoSans-W6, Hiragino Sans"><tspan x="0" y="14">ショートカットの</tspan><tspan y="14" font-family="Helvetica-Bold, Helvetica" font-weight="700"></tspan><tspan x="0" y="36">作成はこちら</tspan></text></svg>