<svg xmlns="http://www.w3.org/2000/svg" xmlns:xlink="http://www.w3.org/1999/xlink" width="961" height="420" viewBox="0 0 961 420"><defs><clipPath id="a"><rect width="960" height="420" transform="translate(480 80)" fill="#fff" stroke="#707070" stroke-width="1"/></clipPath><clipPath id="b"><path d="M468.312,244.58v2.305c0,.858-10.992,1.548-24.556,1.548s-24.556-.69-24.556-1.548V244.58c0,.857,10.992,1.548,24.556,1.548S468.312,245.438,468.312,244.58Z" transform="translate(-419.2 -244.58)" fill="#19535f"/></clipPath><clipPath id="c"><path d="M143.283,328.434s-3.753-31.862-3.753-38.254h8.854s.88,17.328-2.7,33.053c-.39,1.737-.724,3.5-.969,5.279h0" transform="translate(-139.53 -290.18)" fill="#ffe776"/></clipPath></defs><g transform="translate(-479 -80)"><g transform="translate(480 296)"><path d="M181.426,26.241a12.673,12.673,0,0,0,6.665-11.614c0-8.7-6.6-14.078-17.163-14.078H153.82V39.337h9.146V7.866h7.453c5.592,0,8.412,2.494,8.412,6.762s-2.82,6.7-8.412,6.7H166.4v7.334a21.605,21.605,0,0,1,5.313.845,10.906,10.906,0,0,1,7.8,10.477h8.551a18.714,18.714,0,0,0-6.641-13.739Z" transform="translate(-60.553 -0.216)" fill="#202323"/><path d="M34.156,14.765c0,8.61-6.586,13.965-17.108,13.965H9.115V39.388H0V.74H17.054C27.576.74,34.162,6.1,34.162,14.765Zm-9.23,0c0-4.255-2.814-6.736-8.387-6.736H9.115V21.447h7.429c5.573,0,8.387-2.487,8.387-6.682Z" transform="translate(0 -0.291)" fill="#202323"/><path d="M226.96,20c0-11.658,9.115-20,21.384-20,6.811,0,12.493,2.429,16.2,6.847L258.7,12.152a12.774,12.774,0,0,0-9.9-4.531c-7.369,0-12.6,5.085-12.6,12.373s5.234,12.379,12.6,12.379a12.646,12.646,0,0,0,9.9-4.585l5.852,5.305C260.837,37.565,255.155,40,248.289,40,236.081,40,226.96,31.658,226.96,20Z" transform="translate(-89.346)" fill="#202323"/><path d="M300.77,20c0-11.492,9.115-20,21.554-20s21.554,8.455,21.554,20-9.17,20-21.554,20S300.77,31.492,300.77,20Zm33.877,0A12.324,12.324,0,1,0,310,20a12.324,12.324,0,1,0,24.647,0Z" transform="translate(-118.403)" fill="#202323"/><path d="M427.614.75a13.309,13.309,0,0,0-11.347,6.23A11.241,11.241,0,0,0,405.914.75,11.777,11.777,0,0,0,396.441,5.2V1.434H387.32V39.379h9.121V20.285c0-6.8,2.869-9.979,6.9-9.979,3.8,0,5.968,2.832,5.968,8.985V39.373h9.121V20.285c0-6.8,2.863-9.979,6.956-9.979,3.681,0,5.968,2.832,5.968,8.985V39.373h9.121V17.6C440.477,5.986,435.1.75,427.614.75Z" transform="translate(-152.477 -0.295)" fill="#202323"/><path d="M91.545.55h-9L65,39.173h9.716c.018-.274.085-.738.085-.738a10.726,10.726,0,0,1,7.666-8.949,21.9,21.9,0,0,1,5.313-.845s1.183-.077,2.383-.077V21.418a31.884,31.884,0,0,0-8.539.53L86.2,11.177a.859.859,0,0,1,1.577,0l8.327,19.707,3.487,8.277h9.558Z" transform="translate(-25.58 -0.216)" fill="#202323"/></g><text transform="translate(480 352)" fill="#46c541" stroke="rgba(0,0,0,0)" stroke-width="1" font-size="40" font-family="IBMPlexSans-Bold, IBM Plex Sans" font-weight="700" letter-spacing="0.032em"><tspan x="0" y="41">FREE Wi-Fi</tspan></text><g clip-path="url(#a)"><g transform="translate(777.998 51)" style="isolation:isolate"><g transform="translate(0.001)"><rect width="44.824" height="162.003" transform="translate(182.292 164.631)" fill="#f4f4f4" style="mix-blend-mode:multiply;isolation:isolate"/><path d="M98.154,266.016H53.33v-152.8L98.154,87.22Z" transform="translate(6.06 9.912)" fill="#f4f4f4" style="mix-blend-mode:multiply;isolation:isolate"/><rect width="53.088" height="162.003" transform="translate(111.898 137.881)" fill="#f4f4f4" style="mix-blend-mode:multiply;isolation:isolate"/><rect width="47.686" height="162.003" transform="translate(228.664 166.702)" fill="#f2f2f2"/><g transform="translate(260.904)"><rect width="21.627" height="244.323" transform="translate(0 94.426)" fill="#f4f4f4" style="mix-blend-mode:multiply;isolation:isolate"/><rect width="26.95" height="244.323" transform="translate(25.848 61.006)" fill="#f4f4f4" style="mix-blend-mode:multiply;isolation:isolate"/><path d="M370.648,244.323h-67.6V0l67.6,22.362Z" transform="translate(-226.464)" fill="#f4f4f4" style="mix-blend-mode:multiply;isolation:isolate"/><rect width="56.885" height="244.323" transform="translate(242.753 64.068)" fill="#f4f4f4" style="mix-blend-mode:multiply;isolation:isolate"/><rect width="71.919" height="244.323" transform="translate(287.288 96.487)" fill="#f4f4f4" style="mix-blend-mode:multiply;isolation:isolate"/></g><path d="M161.345,209.951c-39.111,9-75.606,20.859-107.378,35.425-60.059,27.541-67.643,65.638-34.356,94.972,16.772,14.778,43.455,27.541,77.877,35.759,39.49,9.433,85.439,7.294,127.246,13.865,45.726,7.183,82.844,20.469,128.638,27.708,101.966,16.137,208.72,2.662,257.955-43.766C678.7,310.38,633.956,231.066,491.186,202.556c-101.364-20.246-224.979-16.727-329.852,7.395Z" transform="translate(-0.001 21.521)" fill="#dcf3d9"/><g transform="translate(335.586 84.804)"><g transform="translate(16.738 20.302)"><rect width="206.916" height="116.477" rx="7.54" transform="translate(14.89 22.028)" fill="#f2e9e1"/><rect width="41.561" height="64.714" transform="translate(107.567 70.271)" fill="#fff"/><rect width="41.561" height="64.714" transform="translate(162.292 70.271)" fill="#fff"/><path d="M359.6,157.48h28.944a6.193,6.193,0,0,1,6.192,6.192v61.362H353.41V163.672a6.193,6.193,0,0,1,6.192-6.192Z" transform="translate(-312.16 -87.209)" fill="#19535f"/><path d="M516.514,94.38H352.908a9.178,9.178,0,0,0-6.314,2.573l-25.425,24.088a15.829,15.829,0,0,0-4.789,11.471V146.1H553.053V132.511a15.829,15.829,0,0,0-4.789-11.471L522.839,96.953a9.178,9.178,0,0,0-6.314-2.573Z" transform="translate(-316.369 -94.38)" fill="#19535f"/><ellipse cx="2.25" cy="3.374" rx="2.25" ry="3.374" transform="translate(43.121 107.4)" fill="#8e6f64"/><rect width="25.681" height="25.681" transform="translate(49.079 79.57)" fill="#fff"/><g transform="translate(0 51.729)"><path d="M316.381,140.83h47.33a14.4,14.4,0,0,1-14.388,14.388H330.758A14.4,14.4,0,0,1,316.37,140.83h0Z" transform="translate(-316.37 -140.83)" fill="#19535f"/><path d="M358.881,140.83h47.33a14.4,14.4,0,0,1-14.388,14.388H373.258A14.4,14.4,0,0,1,358.87,140.83h0Z" transform="translate(-311.54 -140.83)" fill="#19535f"/><path d="M401.381,140.83h47.33a14.4,14.4,0,0,1-14.388,14.388H415.758A14.4,14.4,0,0,1,401.37,140.83h0Z" transform="translate(-306.71 -140.83)" fill="#19535f"/><path d="M443.891,140.83h47.33a14.4,14.4,0,0,1-14.388,14.388H458.268A14.4,14.4,0,0,1,443.88,140.83h0Z" transform="translate(-301.879 -140.83)" fill="#19535f"/><path d="M486.391,140.83h47.33a14.4,14.4,0,0,1-14.388,14.388H500.768A14.4,14.4,0,0,1,486.38,140.83h0Z" transform="translate(-297.048 -140.83)" fill="#19535f"/></g><g transform="translate(22.217 68.378)"><circle cx="4.9" cy="4.9" r="4.9" transform="translate(2.138 4.232)" fill="#fffbe6" stroke="#19535f" stroke-miterlimit="10" stroke-width="1.06"/><line y2="6.793" transform="translate(7.038)" fill="none" stroke="#19535f" stroke-linecap="round" stroke-miterlimit="10" stroke-width="1.16"/><path d="M344.655,157.48h-2.84a2.929,2.929,0,0,0-2.595,1.8l-1.771,3.8h11.56l-1.771-3.8a2.916,2.916,0,0,0-2.595-1.8Z" transform="translate(-336.192 -155.587)" fill="#19535f"/><rect width="14.088" height="0.624" rx="0.28" transform="translate(0 7.161)" fill="none" stroke="#19535f" stroke-miterlimit="10" stroke-width="0.86"/><line y2="6.559" transform="translate(7.038 7.473)" fill="none" stroke="#19535f" stroke-linecap="round" stroke-miterlimit="10" stroke-width="0.73"/></g><g transform="translate(88.479 68.155)"><circle cx="4.9" cy="4.9" r="4.9" transform="translate(2.149 4.232)" fill="#fffbe6" stroke="#19535f" stroke-miterlimit="10" stroke-width="1.06"/><line y2="6.793" transform="translate(7.049)" fill="none" stroke="#19535f" stroke-linecap="round" stroke-miterlimit="10" stroke-width="1.16"/><path d="M404.155,157.28h-2.84a2.929,2.929,0,0,0-2.595,1.8l-1.771,3.8h11.56l-1.771-3.8a2.916,2.916,0,0,0-2.595-1.8Z" transform="translate(-395.692 -155.387)" fill="#19535f"/><rect width="14.088" height="0.624" rx="0.28" transform="translate(0 7.161)" fill="none" stroke="#19535f" stroke-miterlimit="10" stroke-width="0.86"/><line y2="6.571" transform="translate(7.049 7.461)" fill="none" stroke="#19535f" stroke-linecap="round" stroke-miterlimit="10" stroke-width="0.73"/></g><line y2="64.725" transform="translate(128.348 70.271)" fill="none" stroke="#e8e2e0" stroke-miterlimit="10" stroke-width="1.06"/><line x1="41.561" transform="translate(107.567 102.634)" fill="none" stroke="#e8e2e0" stroke-miterlimit="10" stroke-width="1.06"/><line y2="64.725" transform="translate(183.073 70.271)" fill="none" stroke="#e8e2e0" stroke-miterlimit="10" stroke-width="1.06"/><g transform="translate(156.913 127.969)"><ellipse cx="10.145" cy="4.844" rx="10.145" ry="4.844" transform="translate(1.826 0.301)" fill="#73cf67"/><ellipse cx="10.145" cy="4.844" rx="10.145" ry="4.844" transform="translate(29.835 0.301)" fill="#73cf67"/><ellipse cx="9.065" cy="6.281" rx="9.065" ry="6.281" transform="translate(16.916)" fill="#73cf67"/><rect width="51.963" height="10.079" rx="0.64" transform="translate(0 3.965)" fill="#a58c83"/></g><g transform="translate(102.367 127.969)"><ellipse cx="10.145" cy="4.844" rx="10.145" ry="4.844" transform="translate(1.826 0.301)" fill="#73cf67"/><ellipse cx="10.145" cy="4.844" rx="10.145" ry="4.844" transform="translate(29.835 0.301)" fill="#73cf67"/><ellipse cx="9.065" cy="6.281" rx="9.065" ry="6.281" transform="translate(16.916)" fill="#73cf67"/><rect width="51.963" height="10.079" rx="0.64" transform="translate(0 3.965)" fill="#a58c83"/></g><line x1="41.561" transform="translate(162.292 102.634)" fill="none" stroke="#e8e2e0" stroke-miterlimit="10" stroke-width="1.06"/></g><g transform="translate(0 128.27)"><path d="M316.383,221.064h24.712l-4.143-29.734H312.24Z" transform="translate(-300.101 -191.33)" fill="#4d4f4f"/><path d="M312.712,191.33l4.611,29.734H308.09Z" transform="translate(-300.573 -191.33)" fill="#797b7b"/><path d="M342.684,232.6l-5.2-41.272H312.772L307.56,232.6" transform="translate(-300.633 -191.33)" fill="none" stroke="#a58c83" stroke-miterlimit="10" stroke-width="1.94"/><line x1="33.476" transform="translate(7.517 29.734)" fill="none" stroke="#a58c83" stroke-miterlimit="10" stroke-width="1.94"/><line x1="5.201" y1="41.272" transform="translate(12.573)" fill="none" stroke="#a58c83" stroke-miterlimit="10" stroke-width="1.94"/><path d="M302.42,230.536h47.764l-1.069-6.426H301.34Z" transform="translate(-301.34 -187.605)" fill="#dcf3d9"/><line x1="9.722" transform="translate(24.255 6.604)" fill="none" stroke="#fff" stroke-linecap="round" stroke-miterlimit="10" stroke-width="2.13" opacity="0.8"/><line x1="9.722" transform="translate(24.612 12.907)" fill="none" stroke="#fff" stroke-linecap="round" stroke-miterlimit="10" stroke-width="2.13" opacity="0.8"/></g><rect width="240.971" height="10.546" transform="translate(2.561 31.784)" fill="#fff" opacity="0.1" style="mix-blend-mode:soft-light;isolation:isolate"/><rect width="257.453" height="10.546" transform="translate(2.561 50.805)" fill="#fff" opacity="0.1" style="mix-blend-mode:soft-light;isolation:isolate"/><rect width="257.453" height="10.546" transform="translate(2.461 70.349)" fill="#fff" opacity="0.1" style="mix-blend-mode:soft-light;isolation:isolate"/><ellipse cx="36.973" cy="20.302" rx="36.973" ry="20.302" transform="translate(94.682)" fill="#30646f"/><text transform="translate(115.04 24.121)" fill="#bacbcf" font-size="10" font-family="Montserrat-Bold, Montserrat" font-weight="700"><tspan x="0" y="0">CAFE</tspan></text></g><g transform="translate(206.97 142.647)"><path d="M194.95,153.09v71.441" transform="translate(-184.816 -125.249)" fill="none" stroke="#19535f" stroke-linecap="round" stroke-miterlimit="10" stroke-width="2.51"/><line y2="5.468" transform="translate(10.134)" fill="none" stroke="#19535f" stroke-linecap="round" stroke-miterlimit="10" stroke-width="1.67"/><path d="M195.4,205.15h0a4.425,4.425,0,0,1,4.421,4.421v18.687H190.99V209.571a4.425,4.425,0,0,1,4.421-4.421Z" transform="translate(-185.266 -119.332)" fill="#19535f"/><path d="M188.54,227.092c0-1.2,3.2-2.172,7.138-2.172s7.139.969,7.139,2.172" transform="translate(-185.544 -117.085)" fill="#19535f"/><path d="M200.365,154.789h-9.132L187.48,138.14h16.638Z" transform="translate(-185.665 -126.948)" fill="#fffbe6"/><line x1="3.753" y2="16.649" transform="translate(14.6 11.192)" fill="none" stroke="#19535f" stroke-miterlimit="10" stroke-width="1.42"/><line x2="3.753" y2="16.649" transform="translate(1.704 11.192)" fill="none" stroke="#19535f" stroke-miterlimit="10" stroke-width="1.42"/><path d="M197.848,130.54h-4.087a4.194,4.194,0,0,0-3.731,2.595l-2.55,5.468h16.638l-2.55-5.468a4.194,4.194,0,0,0-3.731-2.595Z" transform="translate(-185.665 -127.812)" fill="#19535f"/><line y2="16.649" transform="translate(10.134 11.192)" fill="none" stroke="#19535f" stroke-miterlimit="10" stroke-width="1.42"/><rect width="20.268" height="0.891" rx="0.4" transform="translate(0 10.301)" fill="none" stroke="#19535f" stroke-miterlimit="10" stroke-width="1.24"/><rect width="12.885" height="1.893" rx="0.85" transform="translate(3.697 26.895)" fill="#19535f"/></g><g transform="translate(607.639 305.853)"><path d="M554.73,299.64v71.452" transform="translate(-544.596 -271.799)" fill="none" stroke="#19535f" stroke-linecap="round" stroke-miterlimit="10" stroke-width="2.51"/><line y2="5.468" transform="translate(10.134)" fill="none" stroke="#19535f" stroke-linecap="round" stroke-miterlimit="10" stroke-width="1.67"/><path d="M555.18,351.7h0a4.425,4.425,0,0,1,4.421,4.421v18.687H550.77V356.121a4.425,4.425,0,0,1,4.421-4.421Z" transform="translate(-545.046 -265.882)" fill="#19535f"/><path d="M548.32,373.642c0-1.2,3.2-2.172,7.138-2.172s7.138.969,7.138,2.172" transform="translate(-545.324 -263.635)" fill="#19535f"/><path d="M560.145,301.338h-9.132L547.26,284.7H563.9Z" transform="translate(-545.445 -273.497)" fill="#fffbe6"/><line x1="3.753" y2="16.638" transform="translate(14.589 11.203)" fill="none" stroke="#19535f" stroke-miterlimit="10" stroke-width="1.42"/><line x2="3.753" y2="16.638" transform="translate(1.704 11.203)" fill="none" stroke="#19535f" stroke-miterlimit="10" stroke-width="1.42"/><path d="M557.618,277.09h-4.087a4.194,4.194,0,0,0-3.731,2.595l-2.55,5.468h16.638l-2.55-5.468a4.194,4.194,0,0,0-3.731-2.595Z" transform="translate(-545.446 -274.362)" fill="#19535f"/><line y2="16.638" transform="translate(10.134 11.203)" fill="none" stroke="#19535f" stroke-miterlimit="10" stroke-width="1.42"/><rect width="20.268" height="0.891" rx="0.4" transform="translate(0 10.312)" fill="none" stroke="#19535f" stroke-miterlimit="10" stroke-width="1.24"/><rect width="12.885" height="1.893" rx="0.85" transform="translate(3.686 26.895)" fill="#19535f"/></g><ellipse cx="10.446" cy="4.733" rx="10.446" ry="4.733" transform="translate(580.611 357.971)" fill="#b9e7b3"/><ellipse cx="10.446" cy="4.733" rx="10.446" ry="4.733" transform="translate(500.606 393.252)" fill="#b9e7b3"/><ellipse cx="10.446" cy="4.733" rx="10.446" ry="4.733" transform="translate(155.999 252.13)" fill="#b9e7b3"/><g transform="translate(466.829 270.828)"><g style="isolation:isolate"><path d="M443.746,243.19c13.564,0,24.556.69,24.556,1.548s-10.992,1.548-24.556,1.548-24.556-.69-24.556-1.548S430.182,243.19,443.746,243.19Z" transform="translate(-419.19 -243.19)" fill="#19535f"/><g transform="translate(0.011 1.548)" style="isolation:isolate"><path d="M468.312,244.58v2.305c0,.858-10.992,1.548-24.556,1.548s-24.556-.69-24.556-1.548V244.58c0,.857,10.992,1.548,24.556,1.548S468.312,245.438,468.312,244.58Z" transform="translate(-419.2 -244.58)" fill="#19535f"/><g clip-path="url(#b)"><g transform="translate(-0.022)" style="isolation:isolate"><path d="M463.3,244.58v2.305h0V244.58h0" transform="translate(-414.166 -244.58)" fill="#19535f"/><path d="M463.3,244.58h0" transform="translate(-414.166 -244.58)" fill="#19535f"/><path d="M463.29,244.6h0" transform="translate(-414.167 -244.578)" fill="#19535f"/><path d="M463.29,244.61h0" transform="translate(-414.167 -244.577)" fill="#19535f"/><path d="M463.28,244.63h0" transform="translate(-414.168 -244.574)" fill="#19535f"/><path d="M463.262,244.65v2.305l-.022.022v-2.305l.022-.022" transform="translate(-414.173 -244.572)" fill="#19535f"/><path d="M463.252,244.67v2.305l-.022.022v-2.305l.022-.022" transform="translate(-414.174 -244.57)" fill="#19535f"/><path d="M463.225,244.69V247a.207.207,0,0,1-.045.033v-2.305a.449.449,0,0,0,.045-.033" transform="translate(-414.18 -244.568)" fill="#19535f"/><path d="M463.2,244.71v2.305s-.033.022-.056.033v-2.305s.033-.022.056-.033" transform="translate(-414.184 -244.565)" fill="#19535f"/><path d="M463.147,244.74v2.305l-.067.033v-2.305l.067-.033" transform="translate(-414.191 -244.562)" fill="#19535f"/><path d="M463.087,244.77v2.305l-.067.033V244.8l.067-.033" transform="translate(-414.198 -244.558)" fill="#19535f"/><path d="M463.039,244.8v2.305s-.122.045-.189.067v-2.305c.067-.022.134-.045.189-.067" transform="translate(-414.217 -244.555)" fill="#19535f"/><path d="M462.885,244.85v2.305a2.592,2.592,0,0,1-.345.089v-2.305c.134-.033.245-.067.345-.089" transform="translate(-414.252 -244.549)" fill="#19535f"/><path d="M462.839,244.94v2.305a24.887,24.887,0,0,1-2.929.423v-2.305a24.881,24.881,0,0,0,2.929-.423" transform="translate(-414.551 -244.539)" fill="#19535f"/><path d="M460.3,245.31v2.305c-1.069.111-2.339.2-3.786.29V245.6c1.437-.089,2.717-.189,3.786-.29" transform="translate(-414.937 -244.497)" fill="#19535f"/><path d="M457.076,245.58v2.305c-1.615.1-3.452.178-5.446.245v-2.305c1.993-.067,3.82-.156,5.446-.245" transform="translate(-415.492 -244.466)" fill="#19535f"/><path d="M452.385,245.8v2.305c-2.272.078-4.766.134-7.395.156v-2.305c2.628-.033,5.123-.078,7.395-.156" transform="translate(-416.247 -244.441)" fill="#19535f"/><path d="M445.833,245.94v2.305c-1.359.011-2.751.022-4.176.022s-2.762,0-4.087-.022V245.94c1.325.011,2.7.022,4.087.022s2.818,0,4.176-.022" transform="translate(-417.09 -244.425)" fill="#19535f"/><path d="M438.266,245.954v2.305c-2.405-.022-4.7-.078-6.815-.134V245.82c2.116.067,4.4.111,6.815.134" transform="translate(-417.786 -244.439)" fill="#19535f"/><path d="M431.928,245.839v2.305c-1.682-.056-3.252-.111-4.688-.189V245.65c1.437.078,3.007.134,4.688.189" transform="translate(-418.264 -244.458)" fill="#19535f"/><path d="M427.553,245.668v2.305c-1.069-.056-2.06-.111-2.973-.178V245.49c.913.067,1.9.122,2.973.178" transform="translate(-418.566 -244.477)" fill="#19535f"/><path d="M424.766,245.5V247.8c-.657-.045-1.27-.1-1.826-.156V245.34c.557.056,1.169.1,1.826.156" transform="translate(-418.753 -244.494)" fill="#19535f"/><path d="M423.053,245.362v2.305c-.434-.045-.824-.078-1.2-.122V245.24c.367.045.768.089,1.2.122" transform="translate(-418.877 -244.505)" fill="#19535f"/><path d="M421.942,245.25v2.305q-.434-.05-.8-.1V245.15q.367.05.8.1" transform="translate(-418.957 -244.515)" fill="#19535f"/><path d="M421.2,245.159v2.305c-.2-.022-.39-.056-.557-.089V245.07c.178.033.356.056.557.089" transform="translate(-419.014 -244.524)" fill="#19535f"/><path d="M420.683,245.078v2.305c-.156-.022-.29-.056-.423-.078V245c.134.022.278.056.423.078" transform="translate(-419.057 -244.532)" fill="#19535f"/><path d="M420.282,245.007v2.305c-.111-.022-.212-.045-.312-.067V244.94c.1.022.2.045.312.067" transform="translate(-419.09 -244.539)" fill="#19535f"/><path d="M420,244.947v2.305c-.1-.022-.178-.045-.267-.067V244.88q.117.033.267.067" transform="translate(-419.117 -244.546)" fill="#19535f"/><path d="M419.762,244.9V247.2c-.078-.022-.156-.045-.212-.067V244.83c.067.022.134.045.212.067" transform="translate(-419.138 -244.552)" fill="#19535f"/><path d="M419.581,244.858v2.305c-.267-.089-.4-.178-.4-.278V244.58c0,.1.134.189.4.278" transform="translate(-419.18 -244.58)" fill="#19535f"/></g></g></g></g><rect width="2.116" height="31.884" transform="translate(23.498 5.401)" fill="#19535f"/><ellipse cx="9.911" cy="1.448" rx="9.911" ry="1.448" transform="translate(14.644 34.768)" fill="#19535f"/></g><g transform="translate(433.523 271.3)"><line x1="3.675" y2="20.124" transform="translate(6.991 16.678)" fill="none" stroke="#19535f" stroke-linecap="round" stroke-miterlimit="10" stroke-width="1.11"/><line x2="3.675" y2="20.124" transform="translate(19.608 16.678)" fill="none" stroke="#19535f" stroke-linecap="round" stroke-miterlimit="10" stroke-width="1.11"/><path d="M389.547,253.944c-.579-3.653-.5-7.651,3.341-9.444,4.377-2.049,8.018-.356,10.758,3.129,2.717,3.463,6.671,3.664,10.39,5.39,4.5,2.094,6.66,7.963,3.185,11.916-4.043,4.6-11.281,4.666-16.538,2.483-5.457-2.272-10.19-7.551-11.137-13.475Z" transform="translate(-389.283 -243.614)" fill="#bba9a2"/></g><g transform="translate(522.775 271.679)"><line x2="3.675" y2="20.135" transform="translate(18.992 16.678)" fill="none" stroke="#19535f" stroke-linecap="round" stroke-miterlimit="10" stroke-width="1.11"/><line x1="3.675" y2="20.135" transform="translate(6.375 16.678)" fill="none" stroke="#19535f" stroke-linecap="round" stroke-miterlimit="10" stroke-width="1.11"/><path d="M498.82,254.284c.579-3.653.5-7.651-3.341-9.444-4.377-2.049-8.018-.356-10.758,3.129-2.717,3.463-6.671,3.664-10.39,5.39-4.5,2.094-6.66,7.963-3.185,11.916,4.043,4.6,11.281,4.666,16.538,2.483,5.457-2.272,10.19-7.551,11.136-13.475Z" transform="translate(-469.426 -243.954)" fill="#bba9a2"/></g><g transform="translate(444.657 241.818)"><circle cx="2.884" cy="2.884" r="2.884" fill="#19535f"/><g transform="translate(19.263 36.992)"><path d="M419.68,268.016l1.1,6.983,1.036-.1s.579-5.49.49-7.038Z" transform="translate(-416.224 -248.368)" fill="#ddaf9b"/><path d="M420.482,274.127s-.111,1.425.234,1.581,4.232,1.67,4.4,1.314c.39-.824-.368-1.425-.857-1.76a10.358,10.358,0,0,0-2.584-1.281,1.348,1.348,0,0,0-.6-.111,3.461,3.461,0,0,0-.59.245Z" transform="translate(-416.135 -247.685)" fill="#736357"/><path d="M423.5,271.609a2.03,2.03,0,0,1-3.007,1.025s-4.354-12.039-3.875-16.716,2.35-6.17,4.143-5.346,2.762,15.914,2.728,21.048Z" transform="translate(-416.577 -250.357)" fill="#fbe578"/></g><path d="M401.034,233.99c.579-2.238,2.851-3.953,5.446-4.432s6.437,1.4,6.971,3.319c2.094,7.562,1.737,16.393,2.673,18.442a45.087,45.087,0,0,1-13.765,1.3c-.368-4.889-.434-3.23-1.025-8.943-.156-1.559-1.359-5.691-.312-9.7Z" transform="translate(-399.13 -215.737)" fill="#19535f"/><path d="M411.834,247.836c-.134.379-.267.757-.4,1.125-.791-.39-1.581-.757-2.383-1.125q.2-.568.367-1.136c.813.368,1.626.746,2.428,1.136Z" transform="translate(-398.17 -213.781)" fill="#ddaf9b"/><path d="M411.343,247.9a.814.814,0,0,0-.512.858c1.5.445,1.893.858,3.6.535.858-.167.69-2.049-.111-2.205-1.1-.212-1.815.479-2.962.813Z" transform="translate(-397.968 -213.741)" fill="#ddaf9b"/><path d="M399.561,243.659c.312-3.051,1.036-6.069,1.5-9.11a2.183,2.183,0,0,1,3.163-1.6,6.426,6.426,0,0,1,2.138,1.96,2.185,2.185,0,0,1,.4,1.771c-.59,2.74-1.993,5.245-2.918,7.907a2.2,2.2,0,0,1-2.394,1.47h-.045A2.194,2.194,0,0,1,399.561,243.659Z" transform="translate(-399.249 -215.372)" fill="#19535f"/><path d="M416.517,241.721c-.991-2.9-2.383-5.68-3.519-8.531a2.179,2.179,0,0,0-3.441-.846,6.481,6.481,0,0,0-1.637,2.383,2.24,2.24,0,0,0,0,1.815c1.2,2.539,3.129,4.666,4.622,7.049a2.191,2.191,0,0,0,2.662.891h.033a2.21,2.21,0,0,0,1.27-2.762Z" transform="translate(-398.32 -215.472)" fill="#19535f"/><path d="M407.006,231.181h.434a.712.712,0,0,0,.612-.78V226.86H405.97v3.508c0,.445.69.813,1.047.813Z" transform="translate(-398.52 -216.035)" fill="#ddaf9b"/><path d="M405.429,219.1a7.563,7.563,0,0,1,5.357-.111,3.647,3.647,0,0,1,2.1,3.564c-.624,2.528.2,4.276-.457,5.346a3.993,3.993,0,0,1-3.241,1.882,6.594,6.594,0,0,1-4.5-1.281,4.8,4.8,0,0,1-2.082-4.377c.134-1.871.557-4.043,2.829-5.011Z" transform="translate(-398.903 -216.98)" fill="#ddaf9b"/><path d="M406.044,229.309c-2.161,0-4.31-3.675-4.443-6.426A3.174,3.174,0,0,1,402.859,220s.334-1.225,2.929-1.949c1.648-.457,2.9-.646,4.41.145,1.4.724,3.608,2.25,2.584,6.092-.646.167-2.539.2-6.159-2.74-.2.646-.913,3.408-.991,3.742a7.613,7.613,0,0,0,.423,4.031Z" transform="translate(-399.017 -217.081)" fill="#19535f"/><path d="M403.928,226.15c.29.39,1.069.9,1.526.546s.022-1.136-.256-1.5-.835-.713-1.27-.379A.957.957,0,0,0,403.928,226.15Z" transform="translate(-398.783 -216.283)" fill="#ddaf9b"/><path d="M401.917,245.6a44.012,44.012,0,0,0,8.909,3.374c.223-.234,1.292-1.526,1-1.782a49.007,49.007,0,0,0-9.889-6.2l-.044.022a2.553,2.553,0,0,0,.022,4.588Z" transform="translate(-399.144 -214.429)" fill="#19535f"/><path d="M402.216,250.408s-3.085,10.179,9.043,7.951c0,0,9.176-.379,11.549-2.762s-1.058-5.056-1.058-5.056-1.414-1.481-6.314-1.481a70.213,70.213,0,0,0-13.219,1.348Z" transform="translate(-398.986 -213.512)" fill="#fade56"/><g transform="translate(14.698 37.605)"><path d="M413.558,268.3l-.668,7.038,1.036.167s1.927-5.167,2.227-6.7l-2.584-.5Z" transform="translate(-412.431 -248.931)" fill="#ddaf9b"/><path d="M416.505,272.816s-1.492,1.592-3.285-.479c0,0,.5-13.364,2.8-17.529s4.677-4.666,6.081-3.04S418.543,268,416.505,272.8Z" transform="translate(-412.394 -250.907)" fill="#fade56"/><path d="M412.959,274.111s-.679,1.247-.423,1.548,3.185,3.241,3.486,2.985c.69-.6.245-1.448-.067-1.96a10.087,10.087,0,0,0-1.849-2.216,1.306,1.306,0,0,0-.5-.345,3.027,3.027,0,0,0-.635-.011Z" transform="translate(-412.478 -248.272)" fill="#736357"/></g><path d="M409.555,232.46c-.379.134-.757.267-1.125.4.379.791.757,1.593,1.125,2.394.379-.134.757-.245,1.136-.367-.367-.813-.746-1.626-1.125-2.428Z" transform="translate(-398.24 -215.399)" fill="#ddaf9b"/><path d="M409.411,233.153a.842.842,0,0,1-.991.189c.1-1.559-.145-2.071.746-3.553.445-.746,2.16.067,2.027.869-.178,1.114-1.069,1.537-1.793,2.495Z" transform="translate(-398.241 -215.736)" fill="#ddaf9b"/><path d="M412.3,243.153a41.732,41.732,0,0,1-3.374-8.408c.212-.212,1.425-1.258,1.671-.98,3.82,4.365,5.958,8.475,5.746,9.344-.49,1.96-3.118,1.849-4.043.056Z" transform="translate(-398.183 -215.256)" fill="#19535f"/></g><g transform="translate(501.074 241.865)"><path d="M471.372,270.55l.8,7.027-1.025.189s-2.027-5.134-2.35-6.66l2.584-.546Z" transform="translate(-447.797 -211.117)" fill="#c88d7d"/><path d="M472.353,276.65s.49,1.336.189,1.592-3.642,2.728-3.887,2.439c-.59-.69-.022-1.47.368-1.927a10.735,10.735,0,0,1,2.149-1.927,1.254,1.254,0,0,1,.546-.267,2.5,2.5,0,0,1,.635.089Z" transform="translate(-447.842 -210.434)" fill="#736357"/><path d="M468.845,274.958a2.019,2.019,0,0,0,3.163.189S473,262.385,471.3,258s-3.909-5.323-5.423-4.054S467.442,270.013,468.845,274.958Z" transform="translate(-448.176 -213.064)" fill="#b3b3b3"/><path d="M474.308,222.568s-1.292,6.493-1.815,8.408c-.579,2.1-.189,5.368,3.263,5.368,4.365,0,7.361-4.978,8.286-6.158,2-2.561,3.2-9.544-.078-11.326" transform="translate(-447.402 -216.992)" fill="#19535f"/><path d="M486.59,234.04c-.579-2.238-2.851-3.953-5.446-4.432s-6.437,1.4-6.971,3.319c-2.094,7.562-1.737,16.393-2.673,18.442a45.087,45.087,0,0,0,13.765,1.3c.368-4.889.434-3.23,1.025-8.943.156-1.559,1.359-5.691.312-9.7Z" transform="translate(-447.49 -215.778)" fill="#f78f5f"/><path d="M474.481,247.886c.134.379.267.757.4,1.125.791-.39,1.581-.757,2.383-1.125q-.2-.568-.367-1.136c-.813.367-1.626.746-2.428,1.136Z" transform="translate(-447.152 -213.822)" fill="#c88d7d"/><path d="M466.935,233.8c-.379.134-.757.267-1.125.4.379.791.757,1.592,1.125,2.394.379-.134.757-.245,1.136-.368-.367-.813-.746-1.626-1.125-2.428Z" transform="translate(-448.136 -215.294)" fill="#c88d7d"/><path d="M475.123,247.947a.814.814,0,0,1,.512.858c-1.5.445-1.893.858-3.6.535-.858-.167-.69-2.049.111-2.205,1.1-.212,1.815.479,2.962.813Z" transform="translate(-447.493 -213.783)" fill="#c88d7d"/><path d="M466.851,233.586a.827.827,0,0,1,.523.858c-1.5.445-1.893.858-3.586.546-.858-.156-.7-2.049.1-2.205,1.1-.223,1.815.468,2.962.8Z" transform="translate(-448.432 -215.414)" fill="#c88d7d"/><path d="M487.22,243.709c-.312-3.051-1.036-6.069-1.5-9.11a2.183,2.183,0,0,0-3.163-1.6,6.426,6.426,0,0,0-2.138,1.96,2.185,2.185,0,0,0-.4,1.771c.59,2.74,1.993,5.245,2.918,7.907a2.2,2.2,0,0,0,2.394,1.47h.045a2.194,2.194,0,0,0,1.849-2.394Z" transform="translate(-446.527 -215.413)" fill="#f78f5f"/><path d="M470.421,241.771c.991-2.9,2.383-5.68,3.519-8.531a2.179,2.179,0,0,1,3.441-.846,6.481,6.481,0,0,1,1.637,2.383,2.24,2.24,0,0,1,0,1.815c-1.2,2.539-3.129,4.666-4.622,7.049a2.191,2.191,0,0,1-2.662.891H471.7a2.21,2.21,0,0,1-1.27-2.762Z" transform="translate(-447.625 -215.513)" fill="#f78f5f"/><path d="M479.247,231.221h-.434a.712.712,0,0,1-.613-.78V226.9h2.083v3.508c0,.445-.69.813-1.047.813Z" transform="translate(-446.728 -216.078)" fill="#c88d7d"/><path d="M481.666,219.146a7.563,7.563,0,0,0-5.357-.111,3.647,3.647,0,0,0-2.1,3.564c.624,2.528-.2,4.276.457,5.346a3.989,3.989,0,0,0,3.241,1.882,6.594,6.594,0,0,0,4.5-1.281,4.8,4.8,0,0,0,2.082-4.377c-.134-1.871-.557-4.043-2.829-5.011Z" transform="translate(-447.187 -217.021)" fill="#c88d7d"/><path d="M481.2,229.408c2.161,0,4.31-3.675,4.443-6.426a3.174,3.174,0,0,0-1.258-2.884,3.751,3.751,0,0,0-2.929-2.65,6.965,6.965,0,0,0-5.011.457c-1.4.724-3.675,3.486-2.294,6.526.646.167,2.862.156,6.481-2.8.2.646.913,3.408.991,3.742A7.612,7.612,0,0,1,481.2,229.408Z" transform="translate(-447.237 -217.182)" fill="#19535f"/><path d="M482.316,226.2c-.29.39-1.069.9-1.526.546s-.022-1.136.256-1.5.835-.713,1.27-.379a.957.957,0,0,1,0,1.336Z" transform="translate(-446.457 -216.325)" fill="#c88d7d"/><path d="M469.694,244.493a41.73,41.73,0,0,1-3.374-8.408c.212-.212,1.425-1.258,1.67-.98,3.82,4.365,5.958,8.475,5.746,9.344-.49,1.96-3.118,1.849-4.042.056Z" transform="translate(-448.078 -215.151)" fill="#f78f5f"/><path d="M485.286,245.65a44.011,44.011,0,0,1-8.909,3.374c-.223-.234-1.292-1.526-1-1.782a49.007,49.007,0,0,1,9.889-6.2l.045.022a2.553,2.553,0,0,1-.022,4.588Z" transform="translate(-447.055 -214.471)" fill="#f78f5f"/><path d="M486.047,250.458s3.085,10.179-9.043,7.951c0,0-9.176-.379-11.549-2.762s1.058-5.056,1.058-5.056,1.414-1.481,6.314-1.481a70.212,70.212,0,0,1,13.219,1.348Z" transform="translate(-448.272 -213.554)" fill="#999"/><path d="M459.41,267.3l-4.878,5.123-.8-.668s2.639-4.844,3.6-6.069l2.071,1.626Z" transform="translate(-449.509 -211.669)" fill="#c88d7d"/><path d="M455.35,268.46s-.234,2.172,2.517,2.172c0,0,9.756-9.143,11.393-13.609s.457-6.593-1.693-6.593-9.923,13.33-12.217,18.019Z" transform="translate(-449.326 -213.404)" fill="#999"/><path d="M455.375,271.462s-.5,1.336-.891,1.336-4.544-.278-4.544-.668c0-.913.935-1.136,1.526-1.236a10.434,10.434,0,0,1,2.884-.067,1.412,1.412,0,0,1,.59.156,2.176,2.176,0,0,1,.423.479Z" transform="translate(-449.94 -211.093)" fill="#736357"/></g><g transform="translate(143.526 273.775)"><rect width="1.281" height="3.385" transform="translate(15.669 86.223)" fill="#f8ccbd"/><rect width="1.281" height="3.385" transform="translate(3.216 85.94) rotate(10.96)" fill="#f8ccbd"/><ellipse cx="8.196" cy="8.519" rx="8.196" ry="8.519" transform="translate(3.496 56.233) rotate(-86.1)" fill="#ffe776"/><path d="M148.075,264.068c-1.526-2.238-3.742-4.2-6.827-4.2s-5.3,1.949-6.827,4.2a16.978,16.978,0,0,0-2.74,10.2c.668,16.337,1.258,15.959,1.258,15.959s12.005,1.515,16.4,0c0,0-.189-1.871.412-14.834.167-3.664.29-8.43-1.682-11.315Z" transform="translate(-128.563 -244.241)" fill="#345c70"/><path d="M131.519,290.78l-1.225.212s-1.86,1.392-1.314,4.588c0,0,.356,1.515,1.626-.278a7.753,7.753,0,0,0,1.147-2.027A2.848,2.848,0,0,0,131.519,290.78Z" transform="translate(-128.88 -240.728)" fill="#f8ccbd"/><path d="M150.25,290.86l-1.08.612s-1.281,1.938.323,4.755c0,0,.858,1.3,1.437-.813a7.688,7.688,0,0,0,.39-2.294,2.828,2.828,0,0,0-1.069-2.261Z" transform="translate(-126.629 -240.719)" fill="#f8ccbd"/><rect width="2.071" height="3.385" transform="translate(11.716 13.19)" fill="#f8ccbd"/><rect width="1.281" height="3.385" transform="translate(23.84 51.383) rotate(171.44)" fill="#f8ccbd"/><rect width="1.281" height="3.385" transform="translate(1.846 48.548) rotate(3.9)" fill="#f8ccbd"/><path d="M135.3,271.617a34.637,34.637,0,0,0-.88-7.617s-3.92,5.312-4.566,15.736c-.156,2.561-.111,3.553.368,13.865l2.294.178s1.013-2.851,1.86-12.963C134.613,278,135.092,275.27,135.3,271.617Z" transform="translate(-128.778 -243.772)" fill="#345c70"/><path d="M143.673,247.821a8.278,8.278,0,0,0-6.114.178c-1.381.735-2.183,2.094-2.183,4.254,0,3.853-.434,4.533,1,5.958,1.849,1.849,3.285,1.837,3.285,1.837a10.2,10.2,0,0,0,5.234-1.57,5.444,5.444,0,0,0,2.183-5.067c-.1-1.882-.713-4.577-3.408-5.591Z" transform="translate(-128.149 -245.667)" fill="#f8ccbd"/><path d="M135.075,252.611a3.4,3.4,0,0,1,1.136-1.949,14.626,14.626,0,0,0,8.308,3.931,24.651,24.651,0,0,1-.657,4.967s6.314-1.949,3.363-9.978a5.921,5.921,0,0,0-4.065-3.541,9.636,9.636,0,0,0-5.357.39c-1.247.6-5.758,1.069-2.728,6.181Z" transform="translate(-128.293 -245.836)" fill="#345c70"/><path d="M144.644,255.259c-.29.613-1.147,1.192-1.6.969s-.323-1.147-.033-1.748.891-.935,1.348-.713a1.1,1.1,0,0,1,.29,1.492Z" transform="translate(-127.304 -244.943)" fill="#c39682"/><path d="M149.1,270.89a34.666,34.666,0,0,0-2.439-7.25s-2.717,6.069-1.18,16.415c.379,2.539.635,3.5,3.241,13.475l2.272-.345s.4-3.018-.891-13.085c-.356-2.806-.468-5.579-1.013-9.21Z" transform="translate(-127.047 -243.813)" fill="#345c70"/><path d="M132.723,325.075s2.639,1.3,3,3.163a18.254,18.254,0,0,1-4.789-.924l.479-2.483,1.3.256Z" transform="translate(-128.647 -236.859)" fill="#8e6f64"/><path d="M144.126,326.2s2.84.768,3.541,2.528a17.965,17.965,0,0,1-4.878,0V326.2h1.325Z" transform="translate(-127.299 -236.703)" fill="#8e6f64"/><path d="M131.63,327.744s.156-32.107.969-38.454l9.154,1.2s-1.292,17.306-6.983,32.418q-.952,2.506-1.67,5.1h0" transform="translate(-128.567 -240.898)" fill="#ffe776"/><g transform="translate(11.86 49.383)"><path d="M143.283,328.434s-3.753-31.862-3.753-38.254h8.854s.88,17.328-2.7,33.053c-.39,1.737-.724,3.5-.969,5.279h0" transform="translate(-139.53 -290.18)" fill="#ffe776"/><g clip-path="url(#c)"><path d="M149.611,295.62l-9.021,14.644,2.227,17.629,2.06.245Z" transform="translate(-139.41 -289.562)" fill="#ffdf58"/></g></g></g><g transform="translate(201.548 270.432)"><ellipse cx="2.884" cy="3.363" rx="2.884" ry="3.363" transform="matrix(0.375, -0.927, 0.927, 0.375, 28.209, 5.347)" fill="#345c70"/><path d="M186.359,285.684a1.577,1.577,0,0,0-.022-.323,4.515,4.515,0,0,0-4.989-.267c-.98.5.212,2.595,1.18,2.238a12.174,12.174,0,0,1,2.662-.546,1.293,1.293,0,0,0,1.18-1.1Z" transform="translate(-180.981 -238.103)" fill="#f8ccbd"/><path d="M185.236,286.7c-.278-.356-.568-.713-.846-1.069.846-.535,1.693-1.069,2.528-1.626.278.356.579.7.88,1.036C186.951,285.6,186.1,286.149,185.236,286.7Z" transform="translate(-180.594 -238.155)" fill="#f8ccbd"/><path d="M194.7,277.652c2.94-3.564,4.477-12.395,4.477-12.395,3.887-1.18,6.426,4.31,6.426,4.31s.189,3.953-7.506,11.426Z" transform="translate(-179.422 -240.304)" fill="#f78f5f"/><path d="M195.81,276.271a61.262,61.262,0,0,1-9.8,8.441l1.392,2.205c6.37-1.76,11.638-7.161,11.638-7.161.045-2.706-3.23-3.5-3.23-3.5Z" transform="translate(-180.41 -239.035)" fill="#f78f5f"/><path d="M213.637,265.268c-1.7-2.172-4.02-4.243-7.172-4.388s-6.5,2.016-7.172,4.3c-2.328,7.907-2.25,26.4-1.593,27.841,5.769.568,11.649,1.091,17.362-.033-.334-5.858.178-9.511.412-16.17.067-1.882.368-8.753-1.826-11.549Z" transform="translate(-179.126 -240.784)" fill="#f78f5f"/><path d="M206.126,262.6h-.88a.646.646,0,0,1-.646-.646v-2.94h2.194v2.907a.67.67,0,0,1-.668.668Z" transform="translate(-178.297 -240.995)" fill="#f8ccbd"/><path d="M209.039,248.931a9.059,9.059,0,0,0-6.392.178c-1.659.735-2.183,3.074-2.305,4.365-.212,2.294-.212,5.123.958,6.248,1.5,1.459,1.8,1.993,3.642,2.071a8.369,8.369,0,0,0,5.524-1.715,5.711,5.711,0,0,0,2.227-5.334c-.256-2.227-.9-4.778-3.653-5.8Z" transform="translate(-178.793 -242.197)" fill="#f8ccbd"/><path d="M200.3,253.976a3.126,3.126,0,0,1,.8-2.049c2.406,2.417,5.524,3.475,8.787,4.154-.089,1.76.267,2.985-.245,4.688,3.53-1.971,4.5-4.221,4.31-7.506a6.576,6.576,0,0,0-5.3-6.359,9.244,9.244,0,0,0-6.081,1.025,5.549,5.549,0,0,0-2.283,6.036Z" transform="translate(-178.81 -242.387)" fill="#345c70"/><path d="M210.136,256.787c-.256.523-1.036,1.3-1.659.991s-.29-1.325-.045-1.815.813-1.025,1.4-.735A1.124,1.124,0,0,1,210.136,256.787Z" transform="translate(-177.897 -241.435)" fill="#f8ccbd"/><path d="M204.778,276.334a.92.92,0,0,1,.368,1.08c-1.771.134-2.316.5-4.121-.256-.913-.379-.278-2.439.646-2.428C202.952,274.752,203.587,275.688,204.778,276.334Z" transform="translate(-178.754 -239.209)" fill="#f8ccbd"/><path d="M203.53,276.195a6.9,6.9,0,0,1,.111,1.27,5.3,5.3,0,0,1,2.985.379c.089-.412.189-.824.278-1.247a7.1,7.1,0,0,0-3.374-.4Z" transform="translate(-178.419 -239.048)" fill="#f8ccbd"/><path d="M219.009,276.843c-1.548-3.33-3.553-6.459-5.268-9.711a2.619,2.619,0,0,0-4.21-.579,7.653,7.653,0,0,0-1.648,3.051,2.584,2.584,0,0,0,.245,2.16c1.748,2.873,4.31,5.156,6.392,7.807a2.62,2.62,0,0,0,3.285.724l.045-.022a2.626,2.626,0,0,0,1.158-3.43Z" transform="translate(-177.939 -240.231)" fill="#f78f5f"/><path d="M216.449,280.387a49.8,49.8,0,0,1-10.635-2.16c-.078-.356-.323-2.261.122-2.316a55.812,55.812,0,0,1,13.286.022l.033.045a2.91,2.91,0,0,1-2.806,4.41Z" transform="translate(-178.175 -239.12)" fill="#f78f5f"/><path d="M214.549,326.4a6.01,6.01,0,0,0-1.069,3.6.755.755,0,0,0,1.08.668,7.373,7.373,0,0,0,2.328-2.328c.546-.713-.635-1.659-.9-2.528-.69.39-.924-.323-1.448.59Z" transform="translate(-177.288 -233.404)" fill="#345c70"/><path d="M199.7,329.229a6.868,6.868,0,0,0-3.118,1.871.525.525,0,0,0,.334.869,25.381,25.381,0,0,0,4.321-.122c.011-.9-.022-1.771.022-2.684C200.481,329.3,200.726,329,199.7,329.229Z" transform="translate(-179.223 -233.026)" fill="#345c70"/><path d="M198.45,317.471l1.025,13.074,1.559-.067s1.359-10.123,1.359-13.019h-3.931Z" transform="translate(-178.996 -234.353)" fill="#f8ccbd"/><path d="M208.671,316.452l6.5,11.393,1.381-.724s-3.1-9.733-4.332-12.35l-3.564,1.682Z" transform="translate(-177.836 -234.658)" fill="#f8ccbd"/><path d="M215.984,289.71l2.9,32.4s-17.729,2.751-29.69-2.35a42.425,42.425,0,0,0,4.945-10.88s4.8-17.005,4.5-19.121L216,289.721Z" transform="translate(-180.048 -237.506)" fill="#f78f5f"/></g><g transform="translate(234.674 95.487)"><path d="M315.64,189.12c18.386-22.34-9.5-75.416-23.654-99.159a8.62,8.62,0,0,0-14.823,0c-14.143,23.754-42.04,76.831-23.654,99.159,14.244,17.295,47.876,17.295,62.119,0Z" transform="translate(-206.555 -85.743)" fill="#73cf67"/><path d="M282.651,154.86l1.76,62.832H277.84l1.76-62.832Z" transform="translate(-203.099 -77.887)" fill="#8e6f64"/><line x1="14.411" y2="11.86" transform="translate(79.841 94.902)" fill="none" stroke="#8e6f64" stroke-linecap="round" stroke-miterlimit="10" stroke-width="3.38"/><path d="M265.923,184.338c14.878-18.075-7.684-61.028-19.144-80.25a6.972,6.972,0,0,0-11.994,0c-11.448,19.222-34.022,62.175-19.144,80.25,11.526,14,38.744,14,50.27,0Z" transform="translate(-210.727 -84.046)" fill="#96db8d"/><path d="M241.2,159l1.76,58.4h-6.57l1.76-58.4Z" transform="translate(-207.81 -77.417)" fill="#8e6f64"/><path d="M237.894,177.389l-5.39-4.622-6.069-5.223a1.524,1.524,0,0,1,1.938-2.35l11.872,9.344a1.84,1.84,0,1,1-2.339,2.84h0Z" transform="translate(-209.003 -76.751)" fill="#8e6f64"/><path d="M307,146.817c1.7-2.16,1.181-3.9-.267-5.045s-3.263-1.247-4.967.9c-1.37,1.726-1.581,5.468-1.615,6.882a.433.433,0,0,0,.535.423c1.37-.356,4.956-1.437,6.326-3.163Z" transform="translate(-200.564 -79.466)" fill="#50c341"/><path d="M249.786,159.27c1.927-1.125,3.263-.5,4.009.791s.635,2.762-1.292,3.875c-1.537.9-4.566.646-5.7.512a.349.349,0,0,1-.278-.479c.445-1.058,1.715-3.809,3.252-4.711Z" transform="translate(-206.662 -77.453)" fill="#84d57a"/></g><g transform="translate(556.312 177.056)"><path d="M546.937,230.843c12.773-15.524-6.6-52.419-16.438-68.924a5.99,5.99,0,0,0-10.3,0c-9.833,16.5-29.211,53.4-16.437,68.924C513.661,242.87,537.036,242.87,546.937,230.843Z" transform="translate(-499.541 -158.987)" fill="#96db8d"/><path d="M524.065,207.03l1.27,50.159H520.59l1.27-50.159Z" transform="translate(-497.148 -153.527)" fill="#8e6f64"/><line x1="10.012" y1="8.241" transform="translate(15.802 62.69)" fill="none" stroke="#8e6f64" stroke-linecap="round" stroke-miterlimit="10" stroke-width="2.35"/><path d="M533.077,209.311c1.648-.958,2.8-.423,3.441.679s.546,2.372-1.1,3.33c-1.325.768-3.92.557-4.889.434a.291.291,0,0,1-.234-.412c.379-.9,1.47-3.274,2.8-4.043Z" transform="translate(-496.049 -153.325)" fill="#84d57a"/><path d="M595.737,264.332c15.792-19.177-8.163-64.77-20.313-85.172a7.4,7.4,0,0,0-12.729,0c-12.15,20.4-36.1,65.984-20.313,85.172,12.228,14.856,41.116,14.856,53.355,0Z" transform="translate(-495.265 -157.107)" fill="#73cf67"/><path d="M567.592,234.91l1.693,61.986H562.97l1.693-61.986Z" transform="translate(-492.332 -150.359)" fill="#8e6f64"/><line x1="12.373" y2="10.179" transform="translate(75.36 99.953)" fill="none" stroke="#8e6f64" stroke-linecap="round" stroke-miterlimit="10" stroke-width="2.9"/><path d="M588.32,228c1.459-1.849,1.013-3.352-.234-4.332s-2.806-1.08-4.265.78c-1.169,1.481-1.359,4.7-1.381,5.913a.372.372,0,0,0,.457.368c1.169-.312,4.254-1.236,5.435-2.717Z" transform="translate(-490.119 -151.715)" fill="#50c341"/></g></g></g></g></g></svg>