<svg xmlns="http://www.w3.org/2000/svg" xmlns:xlink="http://www.w3.org/1999/xlink" width="32" height="32" viewBox="0 0 32 32"><defs><clipPath id="a"><rect width="18.51" height="21.333" fill="#fff"/></clipPath></defs><g transform="translate(-1334 -191)"><circle cx="16" cy="16" r="16" transform="translate(1334 191)" fill="#46c541"/><g transform="translate(1340.745 196.333)"><g clip-path="url(#a)"><path d="M3.729,5.978,5.565,7.367c.061-.045,6.026-4.5,6.064-4.613V0a10.574,10.574,0,0,0-.981.721L7.661,2.974c-.668.514-1.313,1-1.981,1.5-.285.213-1.837,1.358-1.951,1.508M7.413,8.766,8.765,9.793a4.483,4.483,0,0,0,.49.359l5.657-4.261c.159-.118.3-.146.3-.417V2.89a8.765,8.765,0,0,0-.978.709c-1.948,1.445-3.895,2.988-5.854,4.424-.323.237-.685.5-.964.743M0,6.432l0,7.936L6.923,19.6l1.151.865c.206.154.375.282.573.434a5.013,5.013,0,0,0,.608.439l9.25-6.991.006-2.76c-.251.113-4.233,3.186-4.618,3.469L9.255,18.525,2.582,13.51c-.145-.114-.136-.083-.195-.226V10.608c.374.175,6.6,5.008,6.867,5.136L18.5,8.776l.008-2.788a3.664,3.664,0,0,0-.575.409l-7.492,5.658c-.207.156-.372.285-.574.434a4.9,4.9,0,0,1-.615.445,11.33,11.33,0,0,1-1.162-.855c-.378-.287-.757-.591-1.148-.866-.79-.556-1.559-1.176-2.328-1.753-.8-.6-1.5-1.149-2.29-1.74-.371-.278-.755-.571-1.15-.866A10.926,10.926,0,0,0,0,5.988Z" fill="#fff" fill-rule="evenodd"/></g></g></g></svg>