<svg xmlns="http://www.w3.org/2000/svg" xmlns:xlink="http://www.w3.org/1999/xlink" width="48" height="48" viewBox="0 0 48 48"><defs><clipPath id="a"><circle cx="24" cy="24" r="24" transform="translate(670 -14869)" fill="#46c541"/></clipPath></defs><g transform="translate(-670 14869)" clip-path="url(#a)"><circle cx="24" cy="24" r="24" transform="translate(670 -14869)" fill="#46c541"/><path d="M24,23.35a8.189,8.189,0,0,1-8.6-8.6A8.189,8.189,0,0,1,24,6.15a8.523,8.523,0,0,1,6.225,2.375A8.323,8.323,0,0,1,32.65,14.75a8.39,8.39,0,0,1-2.4,6.2A8.454,8.454,0,0,1,24,23.35ZM6.9,41.5V35.7a6.45,6.45,0,0,1,1.15-3.825A7.456,7.456,0,0,1,11,29.4a33.685,33.685,0,0,1,6.575-2.35,27.643,27.643,0,0,1,6.375-.75,26.1,26.1,0,0,1,6.45.8,41.74,41.74,0,0,1,6.55,2.3A6.9,6.9,0,0,1,40,31.85a6.564,6.564,0,0,1,1.15,3.85v5.8Z" transform="translate(669.975 -14862.5)" fill="#fff"/></g></svg>