<svg xmlns="http://www.w3.org/2000/svg" width="80" height="80" viewBox="0 0 80 80"><g transform="translate(-336 -1954)"><circle cx="40" cy="40" r="40" transform="translate(336 1954)" fill="#eef2f5"/><g transform="translate(356 1974)"><rect width="40" height="40" fill="none"/><path d="M55.623,53.3a18.859,18.859,0,0,0-10.484-8.469,11.25,11.25,0,1,0-11.5,0A18.859,18.859,0,0,0,23.155,53.3a1.2,1.2,0,0,0,0,1.25,1.219,1.219,0,0,0,1.078.625H54.545a1.219,1.219,0,0,0,1.078-.625A1.2,1.2,0,0,0,55.623,53.3Z" transform="translate(-19.386 -19.54)" fill="#b8c2cc"/></g></g></svg>