<svg xmlns="http://www.w3.org/2000/svg" width="40" height="40" viewBox="0 0 40 40"><rect width="40" height="40" fill="none"/><g transform="translate(6.667 3.333)"><path d="M29.683,11.017l-8.05-8.05A3.33,3.33,0,0,0,19.283,2H7.333A3.329,3.329,0,0,0,4.017,5.333L4,32a3.329,3.329,0,0,0,3.317,3.333H27.333A3.343,3.343,0,0,0,30.667,32V13.383A3.344,3.344,0,0,0,29.683,11.017ZM22,23.667H19v5a1.667,1.667,0,0,1-3.333,0v-5H12.683A.825.825,0,0,1,12.1,22.25l4.667-4.65a.856.856,0,0,1,1.183,0l4.65,4.65A.841.841,0,0,1,22,23.667Zm-1.333-10A1.672,1.672,0,0,1,19,12V4.5l9.167,9.167Z" transform="translate(-4 -2)" fill="#657f8a"/></g></svg>