<svg xmlns="http://www.w3.org/2000/svg" width="360" height="48" viewBox="0 0 360 48"><g transform="translate(-775 -224)"><rect width="48" height="48" rx="12" transform="translate(775 224)" fill="#46c541"/><path d="M21.4,7.019a16.033,16.033,0,0,1-1.343-1.9C17.926,1.532,15.993,0,11.842,0S5.279,1.551,3.68,5.031a18.576,18.576,0,0,1-2,3.384A7.924,7.924,0,0,0,0,13.251a8.533,8.533,0,0,0,2.236,5.541,13.874,13.874,0,0,0,8.1,3.989v2.858a.365.365,0,0,0,.367.361h2.377a.365.365,0,0,0,.367-.361V16.592a.729.729,0,0,1,.734-.721H15.31a1.961,1.961,0,0,1,1.973,1.644,1.9,1.9,0,0,1-1.909,2.137v2.7a14.126,14.126,0,0,0,6.946-4.575A8.77,8.77,0,0,0,24,12.917c0-2.656-1.707-4.8-2.6-5.895Z" transform="translate(787 235)" fill="#fff"/><g transform="translate(835.137 232)"><path d="M281.9,32.528a10.15,10.15,0,0,0,5.306-9.293c0-6.964-5.258-11.265-13.664-11.265H259.92V43.007H267.2V17.824h5.934c4.452,0,6.7,2,6.7,5.411s-2.245,5.363-6.7,5.363h-3.2v5.868a17.121,17.121,0,0,1,4.23.676,8.722,8.722,0,0,1,6.209,8.383h6.808A15,15,0,0,0,281.9,32.533Z" transform="translate(-185.656 -11.701)" fill="#202323"/><path d="M133.3,23.377c0,6.892-5.244,11.179-13.621,11.179h-6.316v8.531H106.11V12.15h13.577c8.377,0,13.621,4.287,13.621,11.227Zm-7.349,0c0-3.406-2.24-5.392-6.678-5.392h-5.915V28.726h5.915C123.714,28.726,125.955,26.735,125.955,23.377Z" transform="translate(-106.11 -11.796)" fill="#202323"/><path d="M333.07,27.41c0-9.326,7.257-16,17.025-16,5.422,0,9.946,1.943,12.9,5.478l-4.659,4.244a10.15,10.15,0,0,0-7.885-3.625c-5.866,0-10.033,4.068-10.033,9.9s4.167,9.9,10.033,9.9a10.048,10.048,0,0,0,7.885-3.668L363,37.884c-2.955,3.577-7.479,5.525-12.945,5.525C340.332,43.409,333.07,36.736,333.07,27.41Z" transform="translate(-223.485 -11.41)" fill="#202323"/><path d="M406.87,27.41c0-9.193,7.257-16,17.16-16s17.16,6.764,17.16,16-7.3,16-17.16,16S406.87,36.6,406.87,27.41Zm26.971,0a9.812,9.812,0,1,0-19.623,0,9.812,9.812,0,1,0,19.623,0Z" transform="translate(-261.652 -11.41)" fill="#202323"/><path d="M525.5,12.17a10.582,10.582,0,0,0-9.034,4.987,8.943,8.943,0,0,0-8.242-4.987,9.357,9.357,0,0,0-7.542,3.563V12.718H493.42V43.093h7.262V27.808c0-5.44,2.284-7.988,5.495-7.988,3.027,0,4.751,2.267,4.751,7.192V43.088h7.262V27.808c0-5.44,2.279-7.988,5.538-7.988,2.931,0,4.751,2.267,4.751,7.192V43.088h7.262V25.655C535.74,16.362,531.458,12.17,525.5,12.17Z" transform="translate(-306.412 -11.806)" fill="#202323"/><path d="M192.234,11.97h-7.165L171.1,42.888h7.735c.014-.219.068-.591.068-.591a8.573,8.573,0,0,1,6.1-7.164,17.347,17.347,0,0,1,4.23-.676s.942-.062,1.9-.062V28.675a25.248,25.248,0,0,0-6.8.424l3.645-8.621a.683.683,0,0,1,1.255,0l6.629,15.776,2.776,6.626h7.609Z" transform="translate(-139.721 -11.701)" fill="#202323"/></g><path d="M1.02,41.46V37.278H17.884V41.46Zm25.942-6.052a11.349,11.349,0,0,1-4.284-.782,8.625,8.625,0,0,1-3.3-2.329,10.807,10.807,0,0,1-2.108-3.842,17.185,17.185,0,0,1-.748-5.321,17.185,17.185,0,0,1,.748-5.321,10.807,10.807,0,0,1,2.108-3.842,8.625,8.625,0,0,1,3.3-2.329,11.349,11.349,0,0,1,4.284-.782,11.349,11.349,0,0,1,4.284.782,8.625,8.625,0,0,1,3.3,2.329,10.807,10.807,0,0,1,2.108,3.842,17.185,17.185,0,0,1,.748,5.321,17.185,17.185,0,0,1-.748,5.321A10.807,10.807,0,0,1,34.544,32.3a8.625,8.625,0,0,1-3.3,2.329A11.349,11.349,0,0,1,26.962,35.408Zm0-4.59a4.551,4.551,0,0,0,3.655-1.53A6.559,6.559,0,0,0,31.926,24.9V21.366a6.559,6.559,0,0,0-1.309-4.386,4.551,4.551,0,0,0-3.655-1.53,4.551,4.551,0,0,0-3.655,1.53A6.559,6.559,0,0,0,22,21.366V24.9a6.559,6.559,0,0,0,1.309,4.386A4.551,4.551,0,0,0,26.962,30.818Zm21.624,4.59a11.927,11.927,0,0,1-5.3-1.071,12.13,12.13,0,0,1-3.706-2.771l3.4-3.434a7.645,7.645,0,0,0,5.95,2.72,4.28,4.28,0,0,0,2.822-.782A2.589,2.589,0,0,0,52.666,28a2.514,2.514,0,0,0-.544-1.649,3.476,3.476,0,0,0-2.21-.9l-2.346-.306a9.081,9.081,0,0,1-5.525-2.278,6.586,6.586,0,0,1-1.751-4.794,6.893,6.893,0,0,1,.612-2.924,6.473,6.473,0,0,1,1.751-2.278,8.169,8.169,0,0,1,2.788-1.479,13.6,13.6,0,0,1,8.483.323,9.6,9.6,0,0,1,3.5,2.482L53.992,17.66a6.884,6.884,0,0,0-2.057-1.615,6.549,6.549,0,0,0-3.043-.629,4.434,4.434,0,0,0-2.584.612,1.978,1.978,0,0,0-.85,1.7,2.16,2.16,0,0,0,.663,1.768,4.588,4.588,0,0,0,2.159.782l2.346.374a10.007,10.007,0,0,1,5.44,2.261,6.282,6.282,0,0,1,1.768,4.777,7.858,7.858,0,0,1-.612,3.128,6.7,6.7,0,0,1-1.785,2.448,8.227,8.227,0,0,1-2.907,1.581A12.8,12.8,0,0,1,48.586,35.408Z" transform="translate(1069 226)" fill="#415964" stroke="rgba(0,0,0,0)" stroke-width="1"/><rect width="308" height="48" transform="translate(827 224)" fill="none"/></g></svg>