<svg xmlns="http://www.w3.org/2000/svg" width="32" height="32" viewBox="0 0 32 32"><g transform="translate(-2.003 -2)"><path d="M33.832,18.48C33.624,18.064,28.47,8,18,8S2.382,18.064,2.174,18.48a1.6,1.6,0,0,0,0,1.44C2.382,20.336,7.536,30.4,18,30.4S33.624,20.336,33.832,19.92A1.6,1.6,0,0,0,33.832,18.48Z" transform="translate(0 3.6)" fill="#c7edd7"/><path d="M14.605,6.8V3.6a1.6,1.6,0,0,1,3.2,0V6.8a1.6,1.6,0,0,1-3.2,0ZM8,5.376a1.606,1.606,0,0,0-2.785,1.6l1.6,2.768A1.606,1.606,0,0,0,9.6,8.144ZM16.206,18a4.8,4.8,0,1,0,4.8,4.8A4.8,4.8,0,0,0,16.206,18Zm10.4-13.216a1.6,1.6,0,0,0-2.193.592l-1.6,2.768a1.606,1.606,0,0,0,2.785,1.6l1.6-2.768a1.6,1.6,0,0,0-.592-2.192Z" transform="translate(1.797)" fill="#46c541"/></g></svg>