<svg xmlns="http://www.w3.org/2000/svg" width="32" height="37.248" viewBox="0 0 32 37.248"><g transform="translate(-3.5 -2)" style="isolation:isolate"><path d="M28.859,15.553a1.892,1.892,0,0,1-1.318-3.219l2.8-2.8A1.89,1.89,0,1,1,33.019,12.2l-2.842,2.786A1.882,1.882,0,0,1,28.859,15.553Zm-19.953,0a1.882,1.882,0,0,1-1.318-.565l-2.842-2.8A1.883,1.883,0,1,1,7.419,9.529l2.8,2.8a1.892,1.892,0,0,1-1.318,3.219Zm9.976-4.141A1.882,1.882,0,0,1,17,9.529V5.765H13.236a1.882,1.882,0,1,1,0-3.765H24.53a1.882,1.882,0,1,1,0,3.765H20.765V9.529A1.882,1.882,0,0,1,18.883,11.412Z" transform="translate(0.617 0)" fill="#46c541"/><circle cx="16" cy="16" r="16" transform="translate(3.5 7.248)" fill="#c7edd7"/><path d="M16.647,20.294H12.882A1.882,1.882,0,0,1,11,18.412V10.882a1.882,1.882,0,0,1,3.765,0v5.647h1.882a1.882,1.882,0,1,1,0,3.765Z" transform="translate(6.618 6.176)" fill="#46c541"/></g></svg>