<svg xmlns="http://www.w3.org/2000/svg" width="20" height="20" viewBox="0 0 20 20"><g transform="translate(20782 20820)"><rect width="20" height="20" transform="translate(-20782 -20820)" fill="none"/><g transform="translate(-20783 -20821.02)"><path d="M4.9,21.207a.9.9,0,0,1-.9-.9V14.9a.9.9,0,1,1,1.8,0v5.405A.9.9,0,0,1,4.9,21.207Z" transform="translate(-0.2 -1.188)" fill="#46c541"/><path d="M20,7.857a4.054,4.054,0,0,1-2.034,3.513,3.6,3.6,0,0,1-6.732,0,4.056,4.056,0,0,1,0-7.027,3.6,3.6,0,0,1,6.732,0A4.054,4.054,0,0,1,20,7.857ZM4.7,6.506A2.7,2.7,0,0,0,2,9.209v2.7a2.7,2.7,0,1,0,5.4,0v-2.7A2.7,2.7,0,0,0,4.7,6.506Z" transform="translate(0)" fill="#c7edd7"/><path d="M15.9,20.612a.9.9,0,0,1-.9-.9V8.9a.9.9,0,1,1,1.8,0v10.81A.9.9,0,0,1,15.9,20.612Z" transform="translate(-1.3 -0.593)" fill="#46c541"/><path d="M19.1,21.8H2.9a.9.9,0,0,1,0-1.8H19.1a.9.9,0,0,1,0,1.8Z" transform="translate(0 -1.783)" fill="#c7edd7"/></g></g></svg>