<svg xmlns="http://www.w3.org/2000/svg" xmlns:xlink="http://www.w3.org/1999/xlink" width="34.5" height="34.5" viewBox="0 0 34.5 34.5"><defs><filter id="a" x="0" y="0" width="34.5" height="34.5" filterUnits="userSpaceOnUse"><feOffset input="SourceAlpha"/><feGaussianBlur stdDeviation="2.5" result="b"/><feFlood flood-color="#657f8a" flood-opacity="0.082"/><feComposite operator="in" in2="b"/><feComposite in="SourceGraphic"/></filter></defs><g transform="translate(24186.25 13867.25)"><rect width="16" height="5" transform="translate(-24177 -13852)" fill="#202323"/><g transform="translate(-24181 -13862)"><rect width="24" height="24" fill="none"/><g transform="matrix(1, 0, 0, 1, -5.25, -5.25)" filter="url(#a)"><path d="M33.742,24a9.75,9.75,0,0,0-8.55,14.438l-.8,2.8a1.509,1.509,0,0,0,.375,1.481,1.481,1.481,0,0,0,1.472.375l2.813-.8A9.75,9.75,0,1,0,33.742,24Zm-4.5,10.875a1.125,1.125,0,1,1,1.125-1.125A1.125,1.125,0,0,1,29.242,34.875Zm4.5,0a1.125,1.125,0,1,1,1.125-1.125A1.125,1.125,0,0,1,33.742,34.875Zm4.5,0a1.125,1.125,0,1,1,1.125-1.125A1.125,1.125,0,0,1,38.242,34.875Z" transform="translate(-16.49 -16.5)" fill="#fff"/></g></g></g></svg>