<svg xmlns="http://www.w3.org/2000/svg" width="20" height="20" viewBox="0 0 20 20"><g transform="translate(20160 20814)"><rect width="20" height="20" transform="translate(-20160 -20814)" fill="none"/><g transform="translate(-20161 -20816)"><path d="M18.6,3H7.8A1.908,1.908,0,0,0,6,5V15a1.908,1.908,0,0,0,1.8,2H9.6v2a1.023,1.023,0,0,0,.459.87.818.818,0,0,0,.9-.01L15.252,17H18.6a1.908,1.908,0,0,0,1.8-2V5A1.908,1.908,0,0,0,18.6,3Z" transform="translate(-0.4 0)" fill="#e2e7f0"/><path d="M6.5,21H3.8A1.908,1.908,0,0,1,2,19V8a.954.954,0,0,1,.9-1,.954.954,0,0,1,.9,1V19H6.5a1.006,1.006,0,0,1,0,2ZM10.55,8.5A1.431,1.431,0,0,0,9.2,10a1.431,1.431,0,0,0,1.35,1.5A1.431,1.431,0,0,0,11.9,10,1.431,1.431,0,0,0,10.55,8.5Zm4.5,0A1.431,1.431,0,0,0,13.7,10a1.431,1.431,0,0,0,1.35,1.5A1.431,1.431,0,0,0,16.4,10,1.431,1.431,0,0,0,15.05,8.5Z" transform="translate(0 0)" fill="#657f8a"/></g></g></svg>