<svg xmlns="http://www.w3.org/2000/svg" width="20" height="20" viewBox="0 0 20 20"><g transform="translate(20506 20820)"><rect width="20" height="20" transform="translate(-20506 -20820)" fill="none"/><g transform="translate(-20507 -20821)"><path d="M17.5,20.6a.9.9,0,0,1-.9-.9V16.1a.9.9,0,0,1,1.8,0v3.6A.9.9,0,0,1,17.5,20.6Zm-12.6,0a.9.9,0,0,1-.9-.9V16.1a.9.9,0,0,1,1.8,0v3.6A.9.9,0,0,1,4.9,20.6Zm11.7-7.2a.9.9,0,0,1-.9-.9V8.9a.9.9,0,1,1,1.8,0v3.6A.9.9,0,0,1,16.6,13.4Zm-10.8,0a.9.9,0,0,1-.9-.9V8.9a.9.9,0,1,1,1.8,0v3.6A.9.9,0,0,1,5.8,13.4Z" transform="translate(-0.2 -0.6)" fill="#46c541"/><path d="M20,12.8v2.7a.9.9,0,0,1-.9.9H2.9a.9.9,0,0,1-.9-.9V12.8A1.8,1.8,0,0,1,3.8,11H18.2A1.8,1.8,0,0,1,20,12.8ZM4.7,9.2H17.3a1.8,1.8,0,0,0,1.8-1.8V3.8A1.8,1.8,0,0,0,17.3,2H4.7A1.8,1.8,0,0,0,2.9,3.8V7.4A1.8,1.8,0,0,0,4.7,9.2Z" fill="#c7edd7"/></g></g></svg>