<svg xmlns="http://www.w3.org/2000/svg" width="40" height="40" viewBox="0 0 40 40"><g transform="translate(-1540 -776)"><rect width="40" height="40" rx="8" transform="translate(1540 776)" fill="#f2f5fa"/><g transform="translate(1544.4 781)"><path d="M23.807,19.4H14.233a3.209,3.209,0,0,1-3.2-3.2V4.2a3.209,3.209,0,0,1,3.2-3.2h9.574a3.209,3.209,0,0,1,3.2,3.2v12A3.209,3.209,0,0,1,23.807,19.4Z" transform="translate(-1.407)" fill="#5dadec"/><path d="M22.807,19.4H13.233a3.209,3.209,0,0,1-3.2-3.2V4.2a3.209,3.209,0,0,1,3.2-3.2h9.574a3.209,3.209,0,0,1,3.2,3.2v12A3.209,3.209,0,0,1,22.807,19.4Z" transform="translate(-1.207)" fill="#4289c1"/><path d="M26.6,30.8A1.6,1.6,0,0,1,25,29.2V23.6a1.6,1.6,0,0,1,3.2,0v5.6A1.6,1.6,0,0,1,26.6,30.8Z" transform="translate(-4.2 -4.2)" fill="#9aaab4"/><path d="M20.219,32.77l4.384-2.2.8-1.6V24.617l-4.8,2.4-.873,5.994ZM12.6,30.8A1.6,1.6,0,0,1,11,29.2V23.6a1.6,1.6,0,1,1,3.2,0v5.6A1.6,1.6,0,0,1,12.6,30.8Z" transform="translate(-1.4 -4.2)" fill="#9aaab4"/><path d="M8.4,33.424l4.384-2.2.8-1.6V25.271l-4.8,2.4-.873,5.994Z" transform="translate(-0.782 -4.854)" fill="#9aaab4"/><path d="M6.6,33.8A1.6,1.6,0,0,1,5,32.2V26.6a1.6,1.6,0,1,1,3.2,0v5.6A1.6,1.6,0,0,1,6.6,33.8Zm11.2,0a1.6,1.6,0,0,1-1.6-1.6V26.6a1.6,1.6,0,1,1,3.2,0v5.6A1.6,1.6,0,0,1,17.8,33.8Z" transform="translate(-0.2 -4.8)" fill="#67757f"/><path d="M9.533,20.1l-.24,0L4.683,22.4l-.236.146,14.1-.146,4.8-2.4ZM20.089,26.9l4.384-2.2.416-.931V21.255l-4.8,2.4L19.6,27.139Z" transform="translate(-0.089 -3.8)" fill="#5dadec"/><path d="M25.2,24.8H10.8A.8.8,0,0,1,10,24V20.8a.8.8,0,0,1,.8-.8H25.2a.8.8,0,0,1,.8.8V24A.8.8,0,0,1,25.2,24.8Z" transform="translate(-1.2 -3.8)" fill="#5dadec"/><path d="M19.2,27.8H4.8A.8.8,0,0,1,4,27V23.8a.8.8,0,0,1,.8-.8H19.2a.8.8,0,0,1,.8.8V27A.8.8,0,0,1,19.2,27.8Z" transform="translate(0 -4.4)" fill="#2a6797"/></g></g></svg>