<svg xmlns="http://www.w3.org/2000/svg" width="48" height="48" viewBox="0 0 48 48">
  <g id="グループ_3807" data-name="グループ 3807" transform="translate(-1532 -283)">
    <rect id="長方形_5419" data-name="長方形 5419" width="48" height="48" rx="8" transform="translate(1532 283)" fill="#f2f5fa"/>
    <g id="watch_later_black_24dp" transform="translate(1544 295)">
      <g id="グループ_2111" data-name="グループ 2111">
        <rect id="長方形_5460" data-name="長方形 5460" width="24" height="24" fill="none"/>
      </g>
      <g id="グループ_2113" data-name="グループ 2113">
        <g id="グループ_2112" data-name="グループ 2112">
          <path id="パス_894" data-name="パス 894" d="M12,2A10,10,0,1,0,22,12,10.029,10.029,0,0,0,12,2Zm3.55,13.8-4.08-2.51a.986.986,0,0,1-.48-.85V7.75A.771.771,0,0,1,11.75,7a.755.755,0,0,1,.75.75V12.2l3.84,2.31a.756.756,0,1,1-.79,1.29Z" fill="#657f8a"/>
        </g>
      </g>
    </g>
  </g>
</svg>
