<svg xmlns="http://www.w3.org/2000/svg" width="20" height="20" viewBox="0 0 20 20"><g transform="translate(19909 20424)"><rect width="20" height="20" transform="translate(-19909 -20424)" fill="none"/><g transform="translate(-19910 -20425)"><path d="M19.143,6.284l-.857-3.6A.865.865,0,0,0,17.429,2H14a.879.879,0,0,0-.857.9A.879.879,0,0,0,14,3.8h1.817c-3.711,5.121-10.474,6.3-12.96,6.3a.9.9,0,0,0,0,1.8c2.709,0,10.037-1.3,14.194-6.867l.377,1.683a.88.88,0,0,0,1.063.684A.929.929,0,0,0,19.143,6.284Z" transform="translate(0 0)" fill="#657f8a"/><path d="M20,10.9v9a.879.879,0,0,1-.857.9H16.571a.879.879,0,0,1-.857-.9v-9a.879.879,0,0,1,.857-.9h2.571A.879.879,0,0,1,20,10.9Zm-7.714,2.7H9.714a.879.879,0,0,0-.857.9v5.4a.879.879,0,0,0,.857.9h2.571a.879.879,0,0,0,.857-.9V14.5A.879.879,0,0,0,12.286,13.6ZM5.429,15.4H2.857A.879.879,0,0,0,2,16.3v3.6a.879.879,0,0,0,.857.9H5.429a.879.879,0,0,0,.857-.9V16.3A.879.879,0,0,0,5.429,15.4Z" transform="translate(0 -0.8)" fill="#e2e7f0"/></g></g></svg>