<svg xmlns="http://www.w3.org/2000/svg" width="324" height="213.5" viewBox="0 0 324 213.5"><g transform="translate(-1532 -354.5)"><rect width="12" height="144" transform="translate(1596 355)" fill="#f2f5fa"/><rect width="12" height="144" transform="translate(1577 355)" fill="#f2f5fa"/><rect width="12" height="144" transform="translate(1559 355)" fill="#f2f5fa"/><rect width="12" height="144" transform="translate(1540 355)" fill="#f2f5fa"/><g transform="translate(-23 6)"><rect width="12" height="144" transform="translate(1693 349)" fill="#f2f5fa"/><path d="M4,0H8a4,4,0,0,1,4,4V96a0,0,0,0,1,0,0H0a0,0,0,0,1,0,0V4A4,4,0,0,1,4,0Z" transform="translate(1693 397)" fill="#46c541" opacity="0.391"/></g><g transform="translate(-22 6)"><rect width="12" height="144" transform="translate(1710 349)" fill="#f2f5fa"/><path d="M4,0H8a4,4,0,0,1,4,4V104a0,0,0,0,1,0,0H0a0,0,0,0,1,0,0V4A4,4,0,0,1,4,0Z" transform="translate(1710 389)" fill="#46c541"/></g><g transform="translate(-20 6)"><rect width="12" height="144" transform="translate(1727 349)" fill="#f2f5fa"/><path d="M4,0H8a4,4,0,0,1,4,4v96a0,0,0,0,1,0,0H0a0,0,0,0,1,0,0V4A4,4,0,0,1,4,0Z" transform="translate(1727 393)" fill="#657f8a" opacity="0.4"/></g><g transform="translate(-19 6)"><rect width="12" height="144" transform="translate(1744 349)" fill="#f2f5fa"/><path d="M4,0H8a4,4,0,0,1,4,4V94a0,0,0,0,1,0,0H0a0,0,0,0,1,0,0V4A4,4,0,0,1,4,0Z" transform="translate(1744 399)" fill="#657f8a" opacity="0.4"/></g><g transform="translate(0 6)"><rect width="12" height="144" transform="translate(1744 349)" fill="#f2f5fa"/><path d="M4,0H8a4,4,0,0,1,4,4V94a0,0,0,0,1,0,0H0a0,0,0,0,1,0,0V4A4,4,0,0,1,4,0Z" transform="translate(1744 399)" fill="#657f8a" opacity="0.4"/></g><g transform="translate(18 6)"><rect width="12" height="144" transform="translate(1744 349)" fill="#f2f5fa"/><path d="M4,0H8a4,4,0,0,1,4,4V94a0,0,0,0,1,0,0H0a0,0,0,0,1,0,0V4A4,4,0,0,1,4,0Z" transform="translate(1744 399)" fill="#657f8a" opacity="0.4"/></g><g transform="translate(37 6)"><rect width="12" height="144" transform="translate(1744 349)" fill="#f2f5fa"/><path d="M4,0H8a4,4,0,0,1,4,4V94a0,0,0,0,1,0,0H0a0,0,0,0,1,0,0V4A4,4,0,0,1,4,0Z" transform="translate(1744 399)" fill="#657f8a" opacity="0.4"/></g><g transform="translate(55 6)"><rect width="12" height="144" transform="translate(1744 349)" fill="#f2f5fa"/><path d="M4,0H8a4,4,0,0,1,4,4V94a0,0,0,0,1,0,0H0a0,0,0,0,1,0,0V4A4,4,0,0,1,4,0Z" transform="translate(1744 399)" fill="#657f8a" opacity="0.4"/></g><g transform="translate(-18 6)"><rect width="12" height="144" transform="translate(1836 349)" fill="#f2f5fa"/><path d="M4,0H8a4,4,0,0,1,4,4V62a0,0,0,0,1,0,0H0a0,0,0,0,1,0,0V4A4,4,0,0,1,4,0Z" transform="translate(1836 431)" fill="#657f8a" opacity="0.4"/></g><g transform="translate(0 6)"><rect width="12" height="144" transform="translate(1836 349)" fill="#f2f5fa"/><path d="M4,0H8a4,4,0,0,1,4,4V31a0,0,0,0,1,0,0H0a0,0,0,0,1,0,0V4A4,4,0,0,1,4,0Z" transform="translate(1836 462)" fill="#657f8a" opacity="0.4"/></g><g transform="translate(-25 6)"><rect width="12" height="144" transform="translate(1676 349)" fill="#f2f5fa"/><path d="M4,0H8a4,4,0,0,1,4,4V86a0,0,0,0,1,0,0H0a0,0,0,0,1,0,0V4A4,4,0,0,1,4,0Z" transform="translate(1676 407)" fill="#46c541" opacity="0.391"/></g><g transform="translate(-26 6)"><rect width="12" height="144" transform="translate(1659 349)" fill="#f2f5fa"/><path d="M4,0H8a4,4,0,0,1,4,4V72a0,0,0,0,1,0,0H0a0,0,0,0,1,0,0V4A4,4,0,0,1,4,0Z" transform="translate(1659 421)" fill="#46c541" opacity="0.391"/></g><g transform="translate(-28 6)"><rect width="12" height="144" transform="translate(1642 349)" fill="#f2f5fa"/><path d="M4,0H8a4,4,0,0,1,4,4V72a0,0,0,0,1,0,0H0a0,0,0,0,1,0,0V4A4,4,0,0,1,4,0Z" transform="translate(1642 421)" fill="#46c541" opacity="0.391"/></g><line x1="324" transform="translate(1532 427)" fill="none" stroke="#e2e7f0" stroke-width="1" stroke-dasharray="2" style="mix-blend-mode:multiply;isolation:isolate"/><text transform="translate(1694 516)" fill="#46c541" font-size="10" font-family="Helvetica-Bold, Helvetica" font-weight="700"><tspan x="-10.562" y="0">12</tspan><tspan y="0" font-family="HiraginoSans-W6, Hiragino Sans" font-weight="400">時</tspan></text><text transform="translate(1639 516)" fill="#1c323e" font-size="10" font-family="Helvetica"><tspan x="-7.781" y="0">9</tspan><tspan y="0" font-family="HiraginoSans-W3, Hiragino Sans">時</tspan></text><text transform="translate(1750 516)" fill="#1c323e" font-size="10" font-family="Helvetica"><tspan x="-10.562" y="0">15</tspan><tspan y="0" font-family="HiraginoSans-W3, Hiragino Sans">時</tspan></text><text transform="translate(1805 516)" fill="#1c323e" font-size="10" font-family="Helvetica"><tspan x="-10.562" y="0">18</tspan><tspan y="0" font-family="HiraginoSans-W3, Hiragino Sans">時</tspan></text><text transform="translate(1583 516)" fill="#1c323e" font-size="10" font-family="Helvetica"><tspan x="-7.781" y="0">6</tspan><tspan y="0" font-family="HiraginoSans-W3, Hiragino Sans">時</tspan></text><line x1="324" transform="translate(1532 355)" fill="none" stroke="#e2e7f0" stroke-width="1"/><line x2="324" transform="translate(1532 499)" fill="none" stroke="#e2e7f0" stroke-width="1"/><text transform="translate(1581 562)" fill="#202323" font-size="14" font-family="HiraginoSans-W3, Hiragino Sans"><tspan x="0" y="0">通常より空いています。</tspan></text><rect width="40" height="25" rx="4" transform="translate(1532 543)" fill="#46c541"/><text transform="translate(1540 561)" fill="#fff" font-size="12" font-family="HiraginoSans-W6, Hiragino Sans"><tspan x="0" y="0">現在</tspan></text></g></svg>