<svg xmlns="http://www.w3.org/2000/svg" xmlns:xlink="http://www.w3.org/1999/xlink" width="324" height="309" viewBox="0 0 324 309"><defs><clipPath id="a"><rect width="8" height="16" transform="translate(553 649)" fill="#46c541"/></clipPath><clipPath id="b"><rect width="154" height="8" rx="4" transform="translate(1550 770)" fill="#f2f5fa"/></clipPath><clipPath id="c"><rect width="154" height="8" rx="4" transform="translate(1550 743)" fill="#f2f5fa"/></clipPath><clipPath id="d"><rect width="154" height="8" rx="4" transform="translate(1550 716)" fill="#f2f5fa"/></clipPath><clipPath id="e"><rect width="154" height="8" rx="4" transform="translate(1550 689)" fill="#f2f5fa"/></clipPath></defs><g transform="translate(-1532 -692)"><g transform="translate(0 51)"><text transform="translate(1808 694)" fill="#202323" font-size="40" font-family="Helvetica-Bold, Helvetica" font-weight="700"><tspan x="-27.803" y="0">4.2</tspan></text><g transform="translate(125 -336)"><g transform="translate(1635 1044)"><rect width="16" height="16" fill="none"/><path d="M29.923,21.088a1.025,1.025,0,0,0-.912-.713L25.3,20.119,23.923,16.65a1.025,1.025,0,0,0-.95-.65h0a1.025,1.025,0,0,0-.95.65l-1.4,3.487-3.687.237a1.031,1.031,0,0,0-.913.713,1.05,1.05,0,0,0,.325,1.131l2.837,2.4-.844,3.319a1.156,1.156,0,0,0,.438,1.225,1.125,1.125,0,0,0,1.256.037l2.931-1.856h.013l3.156,1.994a1.006,1.006,0,0,0,.544.163,1.031,1.031,0,0,0,.988-1.3l-.894-3.631,2.825-2.35A1.05,1.05,0,0,0,29.923,21.088Z" transform="translate(-14.973 -15)" fill="#46c541"/></g><g transform="translate(1655 1044)"><rect width="16" height="16" fill="none"/><path d="M29.923,21.088a1.025,1.025,0,0,0-.912-.713L25.3,20.119,23.923,16.65a1.025,1.025,0,0,0-.95-.65h0a1.025,1.025,0,0,0-.95.65l-1.4,3.487-3.687.237a1.031,1.031,0,0,0-.913.713,1.05,1.05,0,0,0,.325,1.131l2.837,2.4-.844,3.319a1.156,1.156,0,0,0,.438,1.225,1.125,1.125,0,0,0,1.256.037l2.931-1.856h.013l3.156,1.994a1.006,1.006,0,0,0,.544.163,1.031,1.031,0,0,0,.988-1.3l-.894-3.631,2.825-2.35A1.05,1.05,0,0,0,29.923,21.088Z" transform="translate(-14.973 -15)" fill="#46c541"/></g><g transform="translate(1675 1044)"><rect width="16" height="16" fill="none"/><path d="M29.923,21.088a1.025,1.025,0,0,0-.912-.713L25.3,20.119,23.923,16.65a1.025,1.025,0,0,0-.95-.65h0a1.025,1.025,0,0,0-.95.65l-1.4,3.487-3.687.237a1.031,1.031,0,0,0-.913.713,1.05,1.05,0,0,0,.325,1.131l2.837,2.4-.844,3.319a1.156,1.156,0,0,0,.438,1.225,1.125,1.125,0,0,0,1.256.037l2.931-1.856h.013l3.156,1.994a1.006,1.006,0,0,0,.544.163,1.031,1.031,0,0,0,.988-1.3l-.894-3.631,2.825-2.35A1.05,1.05,0,0,0,29.923,21.088Z" transform="translate(-14.973 -15)" fill="#46c541"/></g><g transform="translate(1695 1044)"><rect width="16" height="16" fill="none"/><path d="M29.923,21.088a1.025,1.025,0,0,0-.912-.713L25.3,20.119,23.923,16.65a1.025,1.025,0,0,0-.95-.65h0a1.025,1.025,0,0,0-.95.65l-1.4,3.487-3.687.237a1.031,1.031,0,0,0-.913.713,1.05,1.05,0,0,0,.325,1.131l2.837,2.4-.844,3.319a1.156,1.156,0,0,0,.438,1.225,1.125,1.125,0,0,0,1.256.037l2.931-1.856h.013l3.156,1.994a1.006,1.006,0,0,0,.544.163,1.031,1.031,0,0,0,.988-1.3l-.894-3.631,2.825-2.35A1.05,1.05,0,0,0,29.923,21.088Z" transform="translate(-14.973 -15)" fill="#46c541"/></g><g transform="translate(1715 1044)"><rect width="16" height="16" fill="none"/><path d="M29.923,21.088a1.025,1.025,0,0,0-.912-.713L25.3,20.119,23.923,16.65a1.025,1.025,0,0,0-.95-.65h0a1.025,1.025,0,0,0-.95.65l-1.4,3.487-3.687.237a1.031,1.031,0,0,0-.913.713,1.05,1.05,0,0,0,.325,1.131l2.837,2.4-.844,3.319a1.156,1.156,0,0,0,.438,1.225,1.125,1.125,0,0,0,1.256.037l2.931-1.856h.013l3.156,1.994a1.006,1.006,0,0,0,.544.163,1.031,1.031,0,0,0,.988-1.3l-.894-3.631,2.825-2.35A1.05,1.05,0,0,0,29.923,21.088Z" transform="translate(-14.973 -15)" fill="#e2e7f0"/></g><g transform="translate(1160 395)" clip-path="url(#a)"><g transform="translate(555 649)"><rect width="16" height="16" fill="none"/><path d="M29.923,21.088a1.025,1.025,0,0,0-.912-.713L25.3,20.119,23.923,16.65a1.025,1.025,0,0,0-.95-.65h0a1.025,1.025,0,0,0-.95.65l-1.4,3.487-3.687.237a1.031,1.031,0,0,0-.913.713,1.05,1.05,0,0,0,.325,1.131l2.837,2.4-.844,3.319a1.156,1.156,0,0,0,.438,1.225,1.125,1.125,0,0,0,1.256.037l2.931-1.856h.013l3.156,1.994a1.006,1.006,0,0,0,.544.163,1.031,1.031,0,0,0,.988-1.3l-.894-3.631,2.825-2.35A1.05,1.05,0,0,0,29.923,21.088Z" transform="translate(-14.973 -15)" fill="#46c541"/></g></g></g><text transform="translate(1766 746)" fill="#2a81e8" font-size="12" font-family="Helvetica" text-decoration="underline"><tspan x="0" y="0">40</tspan><tspan y="0" font-family="HiraginoSans-W3, Hiragino Sans">件のレビュー</tspan></text></g><text transform="translate(1536 701)" fill="#1c323e" font-size="12" font-family="Helvetica"><tspan x="-3.337" y="0">5</tspan></text><text transform="translate(1536 728)" fill="#1c323e" font-size="12" font-family="Helvetica"><tspan x="-3.337" y="0">4</tspan></text><text transform="translate(1536 755)" fill="#1c323e" font-size="12" font-family="Helvetica"><tspan x="-3.337" y="0">3</tspan></text><text transform="translate(1536 782)" fill="#1c323e" font-size="12" font-family="Helvetica"><tspan x="-3.337" y="0">2</tspan></text><text transform="translate(1536 809)" fill="#1c323e" font-size="12" font-family="Helvetica"><tspan x="-3.337" y="0">1</tspan></text><rect width="154" height="8" rx="4" transform="translate(1550 801)" fill="#f2f5fa"/><text transform="translate(1724 701)" fill="#1c323e" font-size="12" font-family="Helvetica"><tspan x="-12.009" y="0">70%</tspan></text><text transform="translate(1736 728)" fill="#1c323e" font-size="12" font-family="Helvetica"><tspan x="-24.018" y="0">15%</tspan></text><text transform="translate(1736 755)" fill="#1c323e" font-size="12" font-family="Helvetica"><tspan x="-24.018" y="0">10%</tspan></text><text transform="translate(1736 782)" fill="#1c323e" font-size="12" font-family="Helvetica"><tspan x="-17.344" y="0">5%</tspan></text><text transform="translate(1736 809)" fill="#1c323e" font-size="12" font-family="Helvetica"><tspan x="-17.344" y="0">0%</tspan></text><rect width="154" height="8" rx="4" transform="translate(1550 801)" fill="#f2f5fa"/><rect width="154" height="8" rx="4" transform="translate(1550 801)" fill="#f2f5fa"/><g transform="translate(0 4)" clip-path="url(#b)"><rect width="154" height="8" rx="4" transform="translate(1550 770)" fill="#f2f5fa"/><path d="M0,0H12a4,4,0,0,1,4,4V4a4,4,0,0,1-4,4H0A0,0,0,0,1,0,8V0A0,0,0,0,1,0,0Z" transform="translate(1550 770)" fill="#46c541"/></g><g transform="translate(0 4)" clip-path="url(#c)"><rect width="154" height="8" rx="4" transform="translate(1550 743)" fill="#f2f5fa"/><path d="M0,0H23a4,4,0,0,1,4,4V4a4,4,0,0,1-4,4H0A0,0,0,0,1,0,8V0A0,0,0,0,1,0,0Z" transform="translate(1550 743)" fill="#46c541"/></g><g transform="translate(0 4)" clip-path="url(#d)"><rect width="154" height="8" rx="4" transform="translate(1550 716)" fill="#f2f5fa"/><path d="M0,0H31a4,4,0,0,1,4,4V4a4,4,0,0,1-4,4H0A0,0,0,0,1,0,8V0A0,0,0,0,1,0,0Z" transform="translate(1550 716)" fill="#46c541"/></g><g transform="translate(0 4)" clip-path="url(#e)"><rect width="154" height="8" rx="4" transform="translate(1550 689)" fill="#f2f5fa"/><path d="M0,0H110a4,4,0,0,1,4,4V4a4,4,0,0,1-4,4H0A0,0,0,0,1,0,8V0A0,0,0,0,1,0,0Z" transform="translate(1550 689)" fill="#46c541"/></g><rect width="48" height="48" rx="24" transform="translate(1532 833)" fill="#f2f5fa"/><rect width="48" height="48" rx="24" transform="translate(1532 893)" fill="#f2f5fa"/><rect width="48" height="48" rx="24" transform="translate(1532 953)" fill="#f2f5fa"/><text transform="translate(1588 837)" fill="#1c323e" font-size="12" font-family="HiraginoSans-W3, Hiragino Sans"><tspan x="0" y="11">ここにレビューが入ります。ここにレビューが入</tspan><tspan x="0" y="31">ります。ここにレビューが入ります。ここに</tspan><tspan y="31" font-family="Helvetica">[…]</tspan></text><text transform="translate(1588 907)" fill="#1c323e" font-size="12" font-family="HiraginoSans-W3, Hiragino Sans"><tspan x="0" y="11">ここにレビューが入ります。</tspan></text><text transform="translate(1588 959)" fill="#1c323e" font-size="12" font-family="HiraginoSans-W3, Hiragino Sans"><tspan x="0" y="11">ここにレビューが入ります。ここにレビューが入</tspan><tspan x="0" y="31">ります。</tspan></text><text transform="translate(1543 865)" fill="#415964" font-size="24" font-family="AppleColorEmoji, Apple Color Emoji"><tspan x="0" y="0">🐶</tspan></text><text transform="translate(1544 925)" fill="#415964" font-size="24" font-family="AppleColorEmoji, Apple Color Emoji"><tspan x="0" y="0">🐼</tspan></text><text transform="translate(1543 985)" fill="#415964" font-size="24" font-family="AppleColorEmoji, Apple Color Emoji"><tspan x="0" y="0">🐤</tspan></text></g></svg>