<svg xmlns="http://www.w3.org/2000/svg" width="304" height="214.5" viewBox="0 0 304 214.5"><g transform="translate(-1528 -455.5)"><text transform="translate(1548 484)" fill="#202323" font-size="10" font-family="HiraginoSans-W3, Hiragino Sans"><tspan x="-10" y="0">午前</tspan></text><text transform="translate(1636 484)" fill="#202323" font-size="10" font-family="HiraginoSans-W3, Hiragino Sans"><tspan x="-10" y="0">お昼</tspan></text><text transform="translate(1724 484)" fill="#202323" font-size="10" font-family="HiraginoSans-W3, Hiragino Sans"><tspan x="-10" y="0">夕方</tspan></text><line x2="304" transform="translate(1528 456)" fill="none" stroke="#e2e7f0" stroke-width="1" stroke-dasharray="2"/><line x2="304" transform="translate(1528 587)" fill="none" stroke="#e2e7f0" stroke-width="1" stroke-dasharray="2"/><text transform="translate(1537 549)" fill="#202323" font-size="10" font-family="Helvetica"><tspan x="0" y="0">21℃</tspan></text><text transform="translate(1541 569)" fill="#202323" font-size="10" font-family="Helvetica"><tspan x="0" y="0">0%</tspan></text><text transform="translate(1629 569)" fill="#202323" font-size="10" font-family="Helvetica"><tspan x="0" y="0">0%</tspan></text><text transform="translate(1717 569)" fill="#202323" font-size="10" font-family="Helvetica"><tspan x="0" y="0">0%</tspan></text><text transform="translate(1625 549)" fill="#202323" font-size="10" font-family="Helvetica"><tspan x="0" y="0">21℃</tspan></text><text transform="translate(1713 549)" fill="#202323" font-size="10" font-family="Helvetica"><tspan x="0" y="0">21℃</tspan></text><text transform="translate(1528 617)" fill="#7f8a9d" font-size="12" font-family="HiraginoSans-W3, Hiragino Sans"><tspan x="0" y="0">風</tspan></text><text transform="translate(1528 642)" fill="#7f8a9d" font-size="12" font-family="HiraginoSans-W3, Hiragino Sans"><tspan x="0" y="0">湿度</tspan></text><text transform="translate(1620 617)" fill="#7f8a9d" font-size="12" font-family="HiraginoSans-W3, Hiragino Sans"><tspan x="0" y="0">：</tspan></text><text transform="translate(1620 642)" fill="#7f8a9d" font-size="12" font-family="HiraginoSans-W3, Hiragino Sans"><tspan x="0" y="0">：</tspan></text><text transform="translate(1528 667)" fill="#7f8a9d" font-size="12" font-family="HiraginoSans-W3, Hiragino Sans"><tspan x="0" y="0">日の出｜日の入</tspan></text><text transform="translate(1640 667)" fill="#7f8a9d" font-size="12" font-family="Helvetica"><tspan x="0" y="0">05:12</tspan><tspan y="0" font-family="HiraginoSans-W3, Hiragino Sans">｜</tspan><tspan y="0">18:56</tspan></text><text transform="translate(1640 617)" fill="#7f8a9d" font-size="12" font-family="HiraginoSans-W3, Hiragino Sans"><tspan x="0" y="0">北</tspan><tspan y="0" xml:space="preserve" font-family="Helvetica"> 1.6m/s</tspan></text><text transform="translate(1640 642)" fill="#7f8a9d" font-size="12" font-family="Helvetica"><tspan x="0" y="0">55</tspan><tspan y="0" font-family="HiraginoSans-W3, Hiragino Sans">％</tspan></text><text transform="translate(1620 667)" fill="#7f8a9d" font-size="12" font-family="HiraginoSans-W3, Hiragino Sans"><tspan x="0" y="0">：</tspan></text><g transform="translate(1528.02 491.02)"><rect width="40" height="40" transform="translate(-0.02 -0.02)" fill="none"/><path d="M18.61,10.605a8,8,0,1,0,8,8,8.007,8.007,0,0,0-8-8ZM2.6,20.21H5.8a1.6,1.6,0,0,0,0-3.2H2.6a1.6,1.6,0,0,0,0,3.2Zm28.816,0h3.2a1.6,1.6,0,1,0,0-3.2h-3.2a1.6,1.6,0,0,0,0,3.2ZM17.009,2.6V5.8a1.6,1.6,0,0,0,3.2,0V2.6a1.6,1.6,0,0,0-3.2,0Zm0,28.816v3.2a1.6,1.6,0,1,0,3.2,0v-3.2a1.6,1.6,0,0,0-3.2,0ZM8.988,6.731A1.6,1.6,0,0,0,6.731,8.988l1.7,1.7a1.6,1.6,0,0,0,2.257-2.257Zm19.8,19.8a1.6,1.6,0,1,0-2.257,2.257l1.7,1.7a1.6,1.6,0,0,0,2.257-2.257Zm1.7-17.545a1.6,1.6,0,0,0-2.257-2.257l-1.7,1.7a1.6,1.6,0,1,0,2.257,2.257Zm-19.8,19.8a1.6,1.6,0,1,0-2.257-2.257l-1.7,1.7a1.6,1.6,0,0,0,2.257,2.257Z" transform="translate(1.371 1.371)" fill="#e2e7f0"/></g><g transform="translate(1704.02 491.02)"><rect width="40" height="40" transform="translate(-0.02 -0.02)" fill="none"/><path d="M18.61,10.605a8,8,0,1,0,8,8,8.007,8.007,0,0,0-8-8ZM2.6,20.21H5.8a1.6,1.6,0,0,0,0-3.2H2.6a1.6,1.6,0,0,0,0,3.2Zm28.816,0h3.2a1.6,1.6,0,1,0,0-3.2h-3.2a1.6,1.6,0,0,0,0,3.2ZM17.009,2.6V5.8a1.6,1.6,0,0,0,3.2,0V2.6a1.6,1.6,0,0,0-3.2,0Zm0,28.816v3.2a1.6,1.6,0,1,0,3.2,0v-3.2a1.6,1.6,0,0,0-3.2,0ZM8.988,6.731A1.6,1.6,0,0,0,6.731,8.988l1.7,1.7a1.6,1.6,0,0,0,2.257-2.257Zm19.8,19.8a1.6,1.6,0,1,0-2.257,2.257l1.7,1.7a1.6,1.6,0,0,0,2.257-2.257Zm1.7-17.545a1.6,1.6,0,0,0-2.257-2.257l-1.7,1.7a1.6,1.6,0,1,0,2.257,2.257Zm-19.8,19.8a1.6,1.6,0,1,0-2.257-2.257l-1.7,1.7a1.6,1.6,0,0,0,2.257,2.257Z" transform="translate(1.371 1.371)" fill="#e2e7f0"/></g><g transform="translate(1616 491)"><path d="M0,0H40V40H0Z" fill="none"/><path d="M28.243,12.812A10.935,10.935,0,0,0,7.812,9.894,8.75,8.75,0,0,0,8.76,27.343H27.718a7.274,7.274,0,0,0,.525-14.531Z" transform="translate(2.483 4.328)" fill="#e2e7f0"/></g><text transform="translate(1812 484)" fill="#202323" font-size="10" font-family="HiraginoSans-W3, Hiragino Sans"><tspan x="-10" y="0">夜間</tspan></text><text transform="translate(1805 569)" fill="#202323" font-size="10" font-family="Helvetica"><tspan x="0" y="0">0%</tspan></text><text transform="translate(1801 549)" fill="#202323" font-size="10" font-family="Helvetica"><tspan x="0" y="0">21℃</tspan></text><g transform="translate(1792.02 491.02)"><rect width="40" height="40" transform="translate(-0.02 -0.02)" fill="none"/><path d="M18.61,10.605a8,8,0,1,0,8,8,8.007,8.007,0,0,0-8-8ZM2.6,20.21H5.8a1.6,1.6,0,0,0,0-3.2H2.6a1.6,1.6,0,0,0,0,3.2Zm28.816,0h3.2a1.6,1.6,0,1,0,0-3.2h-3.2a1.6,1.6,0,0,0,0,3.2ZM17.009,2.6V5.8a1.6,1.6,0,0,0,3.2,0V2.6a1.6,1.6,0,0,0-3.2,0Zm0,28.816v3.2a1.6,1.6,0,1,0,3.2,0v-3.2a1.6,1.6,0,0,0-3.2,0ZM8.988,6.731A1.6,1.6,0,0,0,6.731,8.988l1.7,1.7a1.6,1.6,0,0,0,2.257-2.257Zm19.8,19.8a1.6,1.6,0,1,0-2.257,2.257l1.7,1.7a1.6,1.6,0,0,0,2.257-2.257Zm1.7-17.545a1.6,1.6,0,0,0-2.257-2.257l-1.7,1.7a1.6,1.6,0,1,0,2.257,2.257Zm-19.8,19.8a1.6,1.6,0,1,0-2.257-2.257l-1.7,1.7a1.6,1.6,0,0,0,2.257,2.257Z" transform="translate(1.371 1.371)" fill="#e2e7f0"/></g></g></svg>