<svg xmlns="http://www.w3.org/2000/svg" width="40" height="40" viewBox="0 0 40 40"><g transform="translate(0.02 0.02)"><rect width="40" height="40" transform="translate(-0.02 -0.02)" fill="none"/><path d="M18.61,10.605a8,8,0,1,0,8,8,8.007,8.007,0,0,0-8-8ZM2.6,20.21H5.8a1.6,1.6,0,0,0,0-3.2H2.6a1.6,1.6,0,0,0,0,3.2Zm28.816,0h3.2a1.6,1.6,0,1,0,0-3.2h-3.2a1.6,1.6,0,0,0,0,3.2ZM17.009,2.6V5.8a1.6,1.6,0,0,0,3.2,0V2.6a1.6,1.6,0,0,0-3.2,0Zm0,28.816v3.2a1.6,1.6,0,1,0,3.2,0v-3.2a1.6,1.6,0,0,0-3.2,0ZM8.988,6.731A1.6,1.6,0,0,0,6.731,8.988l1.7,1.7a1.6,1.6,0,0,0,2.257-2.257Zm19.8,19.8a1.6,1.6,0,1,0-2.257,2.257l1.7,1.7a1.6,1.6,0,0,0,2.257-2.257Zm1.7-17.545a1.6,1.6,0,0,0-2.257-2.257l-1.7,1.7a1.6,1.6,0,1,0,2.257,2.257Zm-19.8,19.8a1.6,1.6,0,1,0-2.257-2.257l-1.7,1.7a1.6,1.6,0,0,0,2.257,2.257Z" transform="translate(1.371 1.371)" fill="#e2e7f0"/></g></svg>