<svg xmlns="http://www.w3.org/2000/svg" xmlns:xlink="http://www.w3.org/1999/xlink" width="72" height="72" viewBox="0 0 72 72"><defs><linearGradient id="a" x1="0.652" y1="0.319" x2="-0.82" y2="1.9" gradientUnits="objectBoundingBox"><stop offset="0" stop-color="#ff803c"/><stop offset="1" stop-color="#f0f0f0"/></linearGradient></defs><path d="M0,0H72V72H0Z" fill="none"/><path d="M16.15,11.32l-1.17-1.17a2.979,2.979,0,0,0-4.2,0l-.03.03a2.952,2.952,0,0,0,0,4.2l1.17,1.17a2.952,2.952,0,0,0,4.2,0l.03-.03a2.952,2.952,0,0,0,0-4.2ZM7.03,30.4H3.97A2.958,2.958,0,0,0,1,33.37v.03a2.958,2.958,0,0,0,2.97,2.97H7a2.921,2.921,0,0,0,3-2.94V33.4A2.964,2.964,0,0,0,7.03,30.4ZM34.03.55H34a2.964,2.964,0,0,0-3,2.97V6.4a2.958,2.958,0,0,0,2.97,2.97H34a2.921,2.921,0,0,0,3-2.94V3.52A2.958,2.958,0,0,0,34.03.55Zm23.22,9.63a3.015,3.015,0,0,0-4.23-.03l-1.17,1.17a2.952,2.952,0,0,0,0,4.2l.03.03a2.952,2.952,0,0,0,4.2,0l1.17-1.17a2.952,2.952,0,0,0,0-4.2Zm-5.43,45.3,1.17,1.17a2.991,2.991,0,1,0,4.23-4.23l-1.17-1.17a2.991,2.991,0,0,0-4.23,4.23ZM58,33.37v.03a2.958,2.958,0,0,0,2.97,2.97H64a2.958,2.958,0,0,0,2.97-2.97v-.03A2.958,2.958,0,0,0,64,30.4H60.97A2.958,2.958,0,0,0,58,33.37ZM34,15.4a18,18,0,1,0,18,18A18.014,18.014,0,0,0,34,15.4Zm-.03,50.85H34a2.958,2.958,0,0,0,2.97-2.97V60.4A2.958,2.958,0,0,0,34,57.43h-.03A2.958,2.958,0,0,0,31,60.4v2.88A2.958,2.958,0,0,0,33.97,66.25ZM10.75,56.62a2.988,2.988,0,0,0,4.23,0l1.17-1.17a2.979,2.979,0,0,0,0-4.2l-.03-.03a2.988,2.988,0,0,0-4.23,0l-1.17,1.17A3.015,3.015,0,0,0,10.75,56.62Z" transform="translate(2 1.1)" fill="url(#a)"/></svg>